<svg version="1.1" baseProfile="tiny" id="Calque_1"
                                    xmlns="http://www.w3.org/2000/svg" xmlns:xlink="http://www.w3.org/1999/xlink" x="0px" y="0px" viewBox="0 0 480 360"
                                    overflow="visible" xml:space="preserve">
                                <g id="ArmorPaintLogo">
                                    <path fill="#CF2E44" d="M47.52,124.91c35.75,0,71.5,0.02,107.24-0.05c1.97,0,2.38,0.41,2.38,2.38
                                        c-0.07,35.75-0.05,71.5-0.05,107.24c-0.85,0.49-1.79,0.26-2.68,0.26c-34.69,0.01-69.38,0.01-104.07,0.01c-3.09,0-3.09,0-3.09-3.09
                                        c0-34.69,0-69.38,0.01-104.07C47.26,126.7,47.03,125.76,47.52,124.91z"/>
                                    <path fill="#FFFFFF" d="M47.52,124.91c0,35.51,0.03,71.02-0.06,106.52c-0.01,2.49,0.62,3.11,3.11,3.11
                                        c35.51-0.09,71.02-0.06,106.52-0.06c0.08,1.08-0.75,0.52-1.09,0.52c-35.84,0.03-71.68,0.02-107.52,0.06
                                        c-1.29,0-1.54-0.25-1.54-1.54C46.98,197.68,46.97,161.84,47,126C47,125.66,46.44,124.83,47.52,124.91z"/>
                                    <path fill="#FFFFFF" d="M90.32,192.26c-3.92,7.3-7.87,14.58-11.73,21.91c-0.8,1.53-1.65,2.36-3.54,2.2
                                        c-2.45-0.2-4.92-0.11-7.39-0.03c-1.42,0.05-1.88-0.44-1.92-1.87c-0.1-3.5,0.36-6.67,2.15-9.91c10.72-19.46,21.19-39.06,31.76-58.6
                                        c0.46-0.86,0.7-1.89,1.61-2.46c4.72-0.57,9.45-0.08,14.18-0.26c0.99-0.04,1.2,0.42,1.22,1.31c0.03,1.14-0.2,2.2-0.77,3.14
                                        c-2.19,3.58-3.76,7.5-6.01,11.05c-1.9,2.55-2.83,5.6-4.42,8.33c-2.84,4.84-5.24,9.93-8.26,14.67c-1.15,2.92-2.83,5.56-4.2,8.37
                                        C92.45,191.25,91.24,191.58,90.32,192.26z"/>
                                    <path fill="#EFEEEE" d="M108.42,158.45c2.33-4.22,4.65-8.45,7.01-12.65c0.89-1.59,0.66-2.26-1.31-2.23
                                        c-4.28,0.06-8.57-0.03-12.85-0.05c4.87-0.84,9.77-0.16,14.65-0.37c1.29-0.05,1.39,1,1.63,1.82c4.1,13.78,8.17,27.57,12.27,41.35
                                        c2.73,9.16,5.51,18.3,8.26,27.45c0.2,0.68,0.27,1.41,0.4,2.12c-3.88,0.55-7.79,0.13-11.68,0.22c-1.82,0.04-2.38-1.35-2.81-2.82
                                        c-1.65-5.58-3.5-11.09-5.02-16.71c-0.24-0.88-0.55-1.73-0.94-2.55c-0.77-4.56-2.59-8.83-3.81-13.27
                                        c-1.63-5.95-3.54-11.83-5.31-17.75C108.45,161.47,108.86,159.93,108.42,158.45z"/>
                                    <path fill="#DADCDC" d="M119.23,193.3c2.01,6.53,4.14,13.02,5.97,19.61c0.64,2.3,1.67,3.1,3.99,2.98c3.09-0.16,6.2-0.02,9.3,0
                                        c-1.36,0.99-2.9,0.34-4.35,0.44c-1.99,0.13-4.02-0.13-6,0.07c-3.84,0.39-6.11-0.77-8.34-4.43c-6.24-10.2-15.81-16.34-27.3-19.48
                                        c-0.69-0.19-1.44-0.15-2.17-0.21c2-3.63,4-7.26,6.01-10.9c1.22-0.61,2.4-0.46,3.68-0.09c5.66,1.63,10.68,4.52,15.55,7.72
                                        C117.2,190.08,118.14,191.76,119.23,193.3z"/>
                                    <path fill="#D02E44" d="M119.23,193.3c-6.84-5.52-14.5-9.45-22.91-11.94c4.03-7.64,8.07-15.28,12.1-22.92
                                        c1.54,1.69,1.66,3.94,2.28,5.97C113.6,174.03,116.4,183.67,119.23,193.3z"/>
                                </g>
                                <g id="MayaLogo">
                                    <path fill="#98CBD2" d="M345.06,245.34c0.62,1.67,1.23,3.34,1.85,5.01c-0.37,0.21-0.72,0.03-1.06-0.07
                                        c-3.47-1.05-6.9-2.25-10.35-3.38c-0.49-0.16-1.06-0.18-1.47-0.56c1.02-0.33,2.09-0.25,3.14-0.36c1.78-0.2,3.58-0.3,5.37-0.45
                                        c0.11-0.01,0.22-0.12,0.32-0.19C343.59,245.34,344.33,245.34,345.06,245.34z"/>
                                    <path fill="#679EA4" d="M419.82,345.16c-7.67-0.01-15.33-0.02-23-0.04c-0.33,0-0.73,0.2-1.01-0.17c0.09-0.09,0.2-0.16,0.33-0.2
                                        c0.56-0.12,1.13-0.1,1.69-0.1c6.8,0.01,13.6-0.02,20.4,0.01c0.37,0,0.83,0.18,1.04-0.34c0.08-0.65,0.03-1.31,0.06-1.96
                                        c-0.02-0.78-0.02-1.56,0-2.34c0-0.41-0.02-0.83,0-1.24c0.02-0.59-0.1-1.19,0.18-1.75c0.08-0.11,0.18-0.14,0.31-0.08
                                        C419.82,339.68,419.82,342.42,419.82,345.16z"/>
                                    <path fill="#86CCCD" d="M419.82,277.41c0,3.81,0,7.62,0,11.43c-0.14,0.06-0.24,0.03-0.32-0.1c-0.37-1.36-0.12-2.75-0.17-4.13
                                        c-0.03-1.76-0.04-3.52,0-5.28c0.02-0.61-0.1-1.24,0.18-1.83C419.58,277.38,419.69,277.35,419.82,277.41z"/>
                                    <path fill="#7DC8C8" d="M419.63,288.83c0.06,0,0.13,0,0.19,0c0,3.67,0,7.35,0,11.02c-0.13,0.06-0.23,0.03-0.31-0.08
                                        c-0.28-0.58-0.15-1.2-0.18-1.8c-0.04-1.11-0.03-2.23-0.01-3.34c-0.02-1.7-0.05-3.4,0.02-5.11
                                        C419.37,289.26,419.41,289.01,419.63,288.83z"/>
                                    <path fill="#9FD4D7" d="M419.82,252.55c0,2.47,0,4.94,0,7.42c-0.12,0.06-0.21,0.04-0.3-0.06c-0.23-0.65-0.26-1.34-0.38-2.01
                                        c-0.12-1.06,0.14-2.09,0.19-3.14c0.04-0.71-0.12-1.44,0.19-2.13C419.59,252.52,419.69,252.49,419.82,252.55z"/>
                                    <path fill="#90CFD1" d="M419.82,277.41c-0.06,0-0.13,0-0.19,0c-0.56-0.82-0.23-1.74-0.3-2.61c-0.03-1.76-0.04-3.52,0-5.29
                                        c0.02-0.55-0.08-1.11,0.18-1.64c0.08-0.12,0.18-0.15,0.31-0.09C419.82,270.99,419.82,274.2,419.82,277.41z"/>
                                    <path fill="#6CA6AA" d="M419.82,336.94c-0.06,0-0.13,0-0.19,0c-0.21-0.17-0.26-0.41-0.28-0.66c-0.05-0.9-0.03-1.8-0.02-2.7
                                        c-0.01-0.59-0.02-1.17,0.01-1.76c0-0.29-0.01-0.57,0-0.86c0.02-0.28,0-0.57,0.01-0.85c0.01-0.51-0.08-1.04,0.18-1.52
                                        c0.08-0.11,0.18-0.13,0.3-0.06C419.82,331.33,419.82,334.13,419.82,336.94z"/>
                                    <path fill="#70AEB2" d="M419.82,328.52c-0.06,0-0.13,0-0.19,0c-0.15-0.12-0.22-0.29-0.25-0.47c-0.09-0.77-0.04-1.55-0.04-2.32
                                        c-0.01-0.59-0.02-1.17,0-1.76c0-0.45-0.01-0.91,0.01-1.36c0-0.27-0.01-0.55,0.01-0.82c0-0.21,0-0.43,0.01-0.64
                                        c0.01-0.22,0.05-0.43,0.17-0.61c0.08-0.09,0.18-0.1,0.28-0.03C419.82,323.17,419.82,325.85,419.82,328.52z"/>
                                    <path fill="#98D2D5" d="M419.82,267.79c-0.06,0-0.13,0-0.19,0c-0.42-0.44-0.32-0.99-0.31-1.51c0.01-0.9-0.02-1.79,0.02-2.69
                                        c0.02-0.87-0.02-1.73,0.01-2.6c0.01-0.36-0.03-0.74,0.28-1.02c0.06,0,0.13,0,0.19,0C419.82,262.57,419.82,265.18,419.82,267.79z"/>
                                    <path fill="#73B5B8" d="M419.82,320.5c-0.06,0-0.13,0-0.19,0c-0.15-0.12-0.22-0.29-0.26-0.47c-0.09-0.78-0.04-1.55-0.04-2.33
                                        c-0.02-0.59-0.02-1.19,0-1.78c-0.01-0.82-0.03-1.64,0.02-2.47c0.02-0.18,0.06-0.35,0.16-0.5c0.08-0.11,0.18-0.13,0.3-0.06
                                        C419.82,315.42,419.82,317.96,419.82,320.5z"/>
                                    <path fill="#76BCBE" d="M419.82,312.89c-0.06,0-0.13,0-0.19,0c-0.39-0.4-0.28-0.91-0.29-1.39c-0.01-0.59-0.02-1.19,0-1.78
                                        c-0.01-0.41-0.02-0.82,0-1.24c0.04-0.76-0.14-1.54,0.17-2.28c0.08-0.11,0.18-0.15,0.31-0.13
                                        C419.82,308.34,419.82,310.61,419.82,312.89z"/>
                                    <path fill="#79C3C3" d="M419.82,306.07c-0.06,0-0.13,0-0.19,0c-0.04-0.04-0.08-0.08-0.12-0.13c-0.26-0.56-0.14-1.15-0.17-1.73
                                        c-0.02-0.7-0.02-1.41,0-2.11c0.01-0.65-0.07-1.31,0.08-1.95c0.04-0.12,0.11-0.21,0.21-0.29c0.06,0,0.13,0,0.19,0
                                        C419.82,301.93,419.82,304,419.82,306.07z"/>
                                    <path fill="#5EB2B5" d="M419.61,248.3c0.07-0.05,0.14-0.11,0.21-0.16c0,0.8,0,1.6,0,2.41c-0.1,0.07-0.19,0.06-0.28-0.03
                                        c-0.3-0.53-0.13-1.13-0.23-1.69C419.29,248.58,419.48,248.46,419.61,248.3z"/>
                                    <path fill="#90C8CA" d="M419.62,250.55c0.06,0,0.13-0.01,0.19-0.01c0,0.67,0,1.34,0,2c-0.06,0-0.12,0.01-0.18,0.01
                                        C419.18,251.89,419.19,251.23,419.62,250.55z"/>
                                    <path fill="#0A888C" d="M314.23,284.42c0-2.74,0-5.48,0-8.22c0.54-0.27,0.79,0.2,1.07,0.48c1.31,1.33,2.57,2.7,3.83,4.08
                                        c1.39,1.52,2.82,3.02,4.21,4.53c3.38,3.67,6.83,7.28,10.18,10.98c1.01,1.11,2.14,2.1,3.07,3.28c0.23,0.29,0.5,0.54,0.61,0.9
                                        c-0.65,1.9-1.33,3.79-2.18,5.62c-0.49,0.27-0.75-0.13-1-0.4c-2.12-2.34-4.34-4.6-6.44-6.96c-1.04-1.17-2.14-2.29-3.21-3.42
                                        c-2.43-2.56-4.78-5.19-7.23-7.72C316.15,286.55,315.19,285.48,314.23,284.42z"/>
                                    <path fill="#038A8D" d="M314.23,284.42c0.92,0.35,1.5,1.13,2.05,1.84c1.07,1.37,2.37,2.52,3.51,3.81c2.43,2.74,5.03,5.32,7.53,7.99
                                        c2.27,2.43,4.5,4.89,6.75,7.33c0.26,0.28,0.49,0.66,0.95,0.67c-0.62,1.86-1.44,3.63-2.25,5.41c-0.51,0.36-0.83-0.04-1.1-0.34
                                        c-2.06-2.35-4.3-4.54-6.36-6.88c-1.03-1.17-2.13-2.29-3.21-3.42c-2.42-2.56-4.73-5.23-7.25-7.7c-0.27-0.26-0.48-0.55-0.62-0.89
                                        C314.23,289.64,314.23,287.03,314.23,284.42z"/>
                                    <path fill="#03AEAE" d="M387.98,248.55c0.05-0.07,0.1-0.14,0.15-0.22c1.17-0.18,2.34-0.04,3.52-0.08c0.47,0.23,0.47,0.71,0.55,1.12
                                        c2.1,10.79,4.22,21.57,6.29,32.36c0.21,1.12,0.43,2.23,0.67,3.34c0.08,0.39,0.23,0.77,0.04,1.17c-0.71,1.51-1.49,2.99-2.38,4.41
                                        c-0.8,0.19-0.77-0.49-0.85-0.91c-0.44-2.3-0.93-4.58-1.36-6.88c-1.24-6.53-2.54-13.04-3.79-19.57c-0.87-4.49-1.74-8.98-2.62-13.47
                                        C388.09,249.4,388.11,248.96,387.98,248.55z"/>
                                    <path fill="#0B8589" d="M336.46,290.41c0.81,1.4,1.61,2.8,2.43,4.2c0.21,0.35,0.19,0.67,0.05,1.04c-0.31,0.8-0.6,1.61-0.9,2.41
                                        c-0.72,0.03-1.04-0.57-1.38-1c-1.11-1.42-2.44-2.65-3.66-3.96c-2.43-2.6-4.86-5.21-7.3-7.8c-3.67-3.9-7.27-7.87-10.97-11.74
                                        c-0.21-0.22-0.36-0.48-0.49-0.75c0-1.81,0-3.61,0-5.42c0.49-0.26,0.75,0.14,0.99,0.41c2.05,2.32,4.25,4.5,6.3,6.83
                                        c1.01,1.15,2.09,2.24,3.15,3.35c2.38,2.51,4.73,5.06,7.09,7.6c1.27,1.36,2.65,2.63,3.79,4.11
                                        C335.79,289.98,335.99,290.38,336.46,290.41z"/>
                                    <path fill="#88BEC5" d="M352.66,264.78c0.45,1.3,1.22,2.47,1.58,3.81c-0.48,0.4-0.96,0.1-1.41-0.04c-4.1-1.31-8.19-2.63-12.28-3.97
                                        c-6.78-2.22-13.58-4.4-20.35-6.63c-0.29-0.09-0.58-0.17-0.81-0.38c-0.14-0.2-0.28-0.39-0.43-0.59c-0.33-0.19-0.49-0.52-0.7-0.81
                                        c-0.25-0.49-0.5-0.98-0.83-1.43c-0.17-0.36-0.44-0.69-0.3-1.13c0.51-0.52,1.06-0.22,1.58-0.06c2.7,0.86,5.39,1.75,8.08,2.63
                                        c7.34,2.41,14.72,4.72,22.04,7.2C350.12,263.82,351.51,263.97,352.66,264.78z"/>
                                    <path fill="#73AEB3" d="M361.91,287.83c0.62,1.23,1.09,2.52,1.55,3.81c-0.53,0.44-1.08,0.19-1.61,0.02
                                        c-1.88-0.59-3.75-1.2-5.62-1.81c-7.26-2.4-14.56-4.69-21.8-7.12c-0.51-0.17-1.02-0.32-1.42-0.7c-0.82-1.29-1.62-2.6-2.23-4
                                        c0.48-0.42,0.96-0.09,1.41,0.05c4.07,1.27,8.12,2.62,12.18,3.93c5.58,1.8,11.15,3.67,16.75,5.43
                                        C361.39,287.54,361.68,287.62,361.91,287.83z"/>
                                    <path fill="#7BB4BA" d="M358.13,278.39c0.61,1.24,1.11,2.51,1.54,3.82c-0.41,0.18-0.79-0.02-1.16-0.15
                                        c-6.01-1.98-12.04-3.91-18.06-5.87c-4.34-1.42-8.67-2.86-13.04-4.19c-0.82-1.3-1.62-2.6-2.22-4.01c0.47-0.41,0.95-0.13,1.41,0.02
                                        c2.79,0.91,5.58,1.82,8.37,2.73c7.45,2.43,14.9,4.85,22.36,7.26C357.62,278.09,357.89,278.21,358.13,278.39z"/>
                                    <path fill="#78B2B7" d="M327.42,272.01c0.29-0.4,0.61-0.1,0.9-0.01c5.66,1.83,11.31,3.67,16.96,5.52c4.8,1.56,9.6,3.13,14.4,4.7
                                        c0.46,1.14,0.92,2.27,1.38,3.41c-0.48,0.4-0.96,0.1-1.42-0.04c-3.89-1.19-7.74-2.5-11.61-3.75c-5.58-1.8-11.16-3.64-16.75-5.43
                                        c-0.54-0.17-1.09-0.3-1.65-0.4C328.83,274.7,328.06,273.39,327.42,272.01z"/>
                                    <path fill="#7FB7BD" d="M358.13,278.39c-1.93-0.25-3.69-1.06-5.52-1.65c-6.14-1.97-12.26-3.98-18.39-5.98
                                        c-2.59-0.85-5.18-1.7-7.77-2.54c-0.41-0.13-0.82-0.3-1.26-0.23c-0.77-1.15-1.45-2.34-2.01-3.61c0.47-0.41,0.95-0.12,1.41,0.01
                                        c3.34,0.94,6.61,2.11,9.9,3.19c7.01,2.28,14.03,4.5,21.02,6.85c0.5,0.17,1.06,0.24,1.36,0.76
                                        C357.36,276.23,357.81,277.29,358.13,278.39z"/>
                                    <path fill="#92C6CC" d="M348.28,253.75c0.69,1.43,1.27,2.91,1.77,4.41c-0.52,0.21-0.99-0.02-1.45-0.18
                                        c-5.61-1.86-11.24-3.65-16.86-5.49c-3.84-1.26-7.71-2.43-11.52-3.78c-0.49-0.17-1.18-0.18-1.22-0.96c1.79-0.39,3.62-0.4,5.43-0.59
                                        c0.98-0.11,1.97-0.33,2.97-0.23c0.19-0.15,0.38-0.05,0.56,0.01c6.44,2.31,13.01,4.24,19.5,6.43
                                        C347.76,253.47,348.05,253.54,348.28,253.75z"/>
                                    <path fill="#82BAC0" d="M356.87,275.2c-5.11-1.79-10.29-3.4-15.45-5.05c-4.94-1.59-9.85-3.25-14.79-4.85
                                        c-1.13-0.36-2.24-0.85-3.45-0.91c-0.79-1.14-1.41-2.37-2-3.61c0.45-0.37,0.89-0.08,1.32,0.05c1.97,0.62,3.94,1.26,5.9,1.91
                                        c8.55,2.8,17.12,5.57,25.68,8.34c0.51,0.16,1.03,0.29,1.41,0.71C356.05,272.89,356.49,274.03,356.87,275.2z"/>
                                    <path fill="#8FC3CA" d="M319.01,247.75c0.21,0.4,0.6,0.49,0.98,0.61c7.21,2.36,14.41,4.72,21.62,7.07
                                        c2.81,0.92,5.63,1.82,8.44,2.72c0.47,0.97,0.89,1.97,1.2,3.01c-0.44,0.38-0.89,0.13-1.32-0.01c-2.16-0.7-4.32-1.39-6.47-2.1
                                        c-9.26-3.04-18.53-6.02-27.79-9.03c-0.32-0.1-0.63-0.21-0.9-0.43c-0.44-0.29-0.36-0.81-0.53-1.22c0.45-0.47,1.06-0.23,1.59-0.32
                                        C316.88,247.89,317.95,247.85,319.01,247.75z"/>
                                    <path fill="#098185" d="M314.23,263.18c0-2.54,0-5.07,0-7.61c0.84,0.07,1.2,0.79,1.67,1.31c1.51,1.69,3.08,3.33,4.64,4.97
                                        c0.46,0.48,0.84,1.01,1.3,1.49c1.85,3.45,3.71,6.9,5.55,10.36c1.23,2.3,2.44,4.61,3.66,6.91c-0.49,0.3-0.76-0.1-1.01-0.37
                                        c-2.04-2.28-4.18-4.47-6.24-6.74c-1.3-1.43-2.64-2.81-3.95-4.23C317.97,267.24,316.03,265.27,314.23,263.18z"/>
                                    <path fill="#85BCC2" d="M355.49,271.79c-3.61-1.17-7.22-2.33-10.83-3.5c-7.57-2.45-15.14-4.91-22.71-7.35
                                        c-0.25-0.08-0.52-0.11-0.77-0.16c-0.7-1.01-1.28-2.09-1.79-3.21c0.37-0.04,0.72,0.07,1.07,0.18c6.67,2.18,13.33,4.36,20,6.53
                                        c4.3,1.4,8.6,2.78,12.91,4.15c0.28,0.09,0.58,0.1,0.87,0.15C354.71,269.64,355.18,270.68,355.49,271.79z"/>
                                    <path fill="#2BB6B7" d="M410.02,266.21c-0.93,1.9-1.9,3.79-3.02,5.59c-0.52-0.2-0.6-0.68-0.69-1.13
                                        c-1.42-7.13-2.8-14.27-4.16-21.41c-0.06-0.33-0.25-0.72,0.14-1.01c1.33-0.02,2.67-0.01,4,0c0.36,0.17,0.37,0.53,0.44,0.84
                                        c1.13,5.6,2.16,11.22,3.3,16.82C410.05,266.02,410.04,266.12,410.02,266.21z"/>
                                    <path fill="#098387" d="M314.23,263.18c0.38,0.01,0.59,0.3,0.8,0.54c2.86,3.15,5.78,6.25,8.72,9.34c2.11,2.21,4.12,4.52,6.2,6.76
                                        c0.3,0.33,0.55,0.78,1.1,0.79c1.4,2.37,2.75,4.77,3.96,7.24c0.43,0.88,0.96,1.7,1.45,2.55c-0.35,0.42-0.53,0.01-0.7-0.17
                                        c-2.1-2.27-4.18-4.56-6.27-6.84c-1.01-1.1-2.08-2.15-3.09-3.27c-2.46-2.72-5.04-5.32-7.54-7.99c-1.25-1.33-2.45-2.72-3.68-4.06
                                        c-0.26-0.28-0.48-0.66-0.94-0.69C314.23,265.98,314.23,264.58,314.23,263.18z"/>
                                    <path fill="#22B4B5" d="M402.18,248.38c0.47,2.3,0.95,4.6,1.4,6.9c1.02,5.2,2.01,10.41,3.03,15.61c0.06,0.32,0.25,0.61,0.38,0.92
                                        c-0.71,1.52-1.5,3.01-2.39,4.43c-0.64-0.32-0.64-0.98-0.75-1.55c-1.32-6.81-2.64-13.61-3.97-20.42c-0.3-1.54-0.6-3.08-0.87-4.62
                                        c-0.08-0.48-0.25-0.99,0.23-1.39C400.22,248.3,401.21,248.1,402.18,248.38z"/>
                                    <path fill="#1CB2B3" d="M399.17,248.38c0.18,2.45,0.81,4.83,1.26,7.23c1.15,6.12,2.36,12.22,3.56,18.32
                                        c0.15,0.78,0.23,1.58,0.61,2.3c-0.68,1.25-1.35,2.5-2.03,3.75c-0.48-0.3-0.57-0.79-0.67-1.29c-1.84-9.35-3.63-18.71-5.46-28.06
                                        c-0.15-0.77-0.61-1.59-0.01-2.38C397.35,248.31,398.27,248.09,399.17,248.38z"/>
                                    <path fill="#08868A" d="M314.23,272.8c2.06,1.84,3.83,3.96,5.7,6c1.08,1.18,2.21,2.3,3.29,3.48c2.4,2.63,4.9,5.17,7.33,7.77
                                        c2.27,2.43,4.5,4.89,6.75,7.34c0.22,0.24,0.49,0.44,0.74,0.66c-0.17,0.84-0.51,1.62-0.83,2.4c-2.36-2.53-4.72-5.06-7.07-7.59
                                        c-0.97-1.05-1.98-2.07-2.94-3.13c-2.46-2.71-5.04-5.32-7.55-7.99c-1.55-1.65-3.06-3.33-4.6-4.99c-0.22-0.24-0.42-0.53-0.8-0.54
                                        C314.23,275.07,314.23,273.94,314.23,272.8z"/>
                                    <path fill="#008E91" d="M314.23,300.46c0-1.4,0-2.81,0-4.21c0.55-0.27,0.79,0.2,1.07,0.48c1.28,1.27,2.5,2.6,3.69,3.95
                                        c1.2,1.35,2.46,2.64,3.68,3.95c2.36,2.54,4.67,5.14,7.12,7.59c0.61,0.61,1.07,1.37,1.8,1.87c-0.4,1.13-1,2.16-1.57,3.21
                                        c-0.72,0.03-1.04-0.57-1.38-1c-1.14-1.44-2.47-2.7-3.73-4.03c-3.34-3.52-6.55-7.17-9.97-10.62
                                        C314.6,301.3,314.4,300.9,314.23,300.46z"/>
                                    <path fill="#6DAAAF" d="M333,282.03c2.31,0.75,4.61,1.49,6.92,2.24c7.39,2.4,14.78,4.79,22.17,7.21c0.46,0.15,0.91,0.16,1.37,0.17
                                        c0.4,1,0.8,2,1.2,3.01c-0.5,0.37-0.97,0.03-1.42-0.11c-3.98-1.26-7.94-2.57-11.92-3.85c-5.34-1.72-10.65-3.52-16.01-5.18
                                        c-0.19-0.06-0.36-0.17-0.54-0.27C334.11,284.21,333.49,283.16,333,282.03z"/>
                                    <path fill="#04A2A3" d="M384.56,256.76c0.36-1.11,0.81-2.19,1.35-3.22c0.74,0.09,0.67,0.73,0.77,1.21c0.8,3.79,1.5,7.6,2.24,11.4
                                        c1.33,6.85,2.65,13.7,3.99,20.55c0.46,2.36,0.89,4.72,1.39,7.08c0.09,0.43,0.06,0.86,0.1,1.29c-0.38,0.75-0.66,1.55-1.19,2.21
                                        c-0.74-0.1-0.65-0.75-0.75-1.22c-0.75-3.52-1.4-7.07-2.09-10.61c-1.33-6.84-2.65-13.69-3.99-20.53c-0.44-2.26-0.85-4.52-1.32-6.78
                                        C384.96,257.66,384.94,257.15,384.56,256.76z"/>
                                    <path fill="#028D8F" d="M331.59,314.09c-0.56,0.07-0.83-0.36-1.14-0.7c-1.33-1.44-2.63-2.91-3.97-4.35
                                        c-3.25-3.47-6.54-6.92-9.78-10.41c-0.79-0.84-1.39-1.86-2.48-2.39c0-1.33,0-2.67,0-4c2.2,1.99,4.14,4.23,6.12,6.42
                                        c0.93,1.04,1.93,2.02,2.87,3.05c2.46,2.71,5.01,5.34,7.55,7.97c0.62,0.64,0.91,1.68,2.01,1.79
                                        C332.38,312.35,331.99,313.22,331.59,314.09z"/>
                                    <path fill="#599CA0" d="M368.56,304.45c0.46,0.91,0.84,1.85,1.14,2.82c-0.62,0.22-1.19-0.02-1.75-0.21
                                        c-6.65-2.22-13.34-4.31-19.99-6.52c-1.9-0.63-3.83-1.16-5.7-1.87c-0.62-0.9-1.14-1.85-1.59-2.84c-0.16-0.22-0.09-0.38,0.16-0.43
                                        c0.34-0.06,0.66,0.08,0.97,0.18c4.7,1.52,9.39,3.03,14.08,4.57c3.83,1.26,7.69,2.45,11.51,3.76
                                        C367.79,304.05,368.21,304.17,368.56,304.45z"/>
                                    <path fill="#5FA0A4" d="M368.56,304.45c-1.78-0.29-3.42-1.04-5.12-1.58c-7.33-2.36-14.65-4.75-21.99-7.11
                                        c-0.23-0.07-0.58-0.47-0.79,0.07c-0.63-0.95-1.2-1.93-1.64-2.98c0.33-0.52,0.78-0.26,1.16-0.14c1.43,0.45,2.87,0.89,4.29,1.36
                                        c6.94,2.31,13.91,4.49,20.84,6.82c0.72,0.24,1.52,0.29,2.15,0.77C367.88,302.57,368.3,303.48,368.56,304.45z"/>
                                    <path fill="#63A3A7" d="M367.47,301.66c-1.78-0.17-3.38-0.93-5.05-1.47c-6.13-1.97-12.25-3.98-18.37-5.98
                                        c-1.36-0.44-2.71-0.88-4.07-1.31c-0.31-0.1-0.63-0.26-0.96-0.05c-0.56-0.75-0.98-1.58-1.37-2.43c-0.19-0.6,0.26-0.58,0.6-0.57
                                        c0.5,0.02,0.98,0.19,1.46,0.35c6.87,2.3,13.79,4.45,20.66,6.75c1.68,0.56,3.39,1.02,5.06,1.62c0.41,0.14,0.84,0.24,1.07,0.67
                                        C366.82,300.06,367.14,300.86,367.47,301.66z"/>
                                    <path fill="#0E9E9F" d="M384.56,256.76c0.63-0.26,0.54,0.25,0.6,0.58c0.59,2.95,1.19,5.9,1.77,8.86
                                        c1.19,6.04,2.37,12.08,3.55,18.12c0.76,3.93,1.52,7.86,2.27,11.8c0.08,0.42,0.1,0.86,0.46,1.17c-0.33,0.79-0.72,1.54-1.22,2.23
                                        c-0.65-0.32-0.64-0.97-0.76-1.54c-1.25-6.45-2.5-12.9-3.76-19.35c-1.21-6.15-2.37-12.31-3.61-18.46c-0.11-0.53-0.13-1.05-0.08-1.59
                                        C384.05,257.97,384.3,257.37,384.56,256.76z"/>
                                    <path fill="#3BB8BB" d="M410.02,266.21c-0.74-1.16-0.72-2.53-0.99-3.81c-0.92-4.4-1.74-8.82-2.59-13.24
                                        c-0.05-0.26-0.03-0.53-0.05-0.8c1.29-0.28,2.6-0.06,3.9-0.12c0.41,0.19,0.37,0.59,0.44,0.94c0.7,3.41,1.34,6.84,2.01,10.26
                                        c0.1,0.52,0.16,1.04,0.09,1.58C411.97,262.79,411.07,264.55,410.02,266.21z"/>
                                    <path fill="#75B0B5" d="M329.63,276c0.4-0.38,0.81-0.15,1.21-0.01c5.69,1.85,11.39,3.71,17.08,5.56c4.08,1.32,8.17,2.63,12.26,3.93
                                        c0.28,0.09,0.58,0.1,0.88,0.15c0.34,0.71,0.67,1.43,0.85,2.2c-1.15-0.03-2.2-0.51-3.26-0.86c-7.49-2.42-14.96-4.92-22.46-7.32
                                        c-1.79-0.57-3.54-1.33-5.42-1.62C330.29,277.41,329.93,276.72,329.63,276z"/>
                                    <path fill="#0EB0B0" d="M399.18,286.24c-1-3.96-1.63-7.99-2.42-11.99c-0.83-4.23-1.68-8.45-2.5-12.69
                                        c-0.85-4.39-1.67-8.79-2.51-13.19c0.5-0.26,1.04-0.09,1.56-0.11c0.36,0.21,0.43,0.56,0.5,0.93c1.3,6.7,2.61,13.4,3.92,20.1
                                        c0.87,4.44,1.71,8.9,2.6,13.34c0.09,0.46,0.12,0.92,0.04,1.39C400.08,284.82,399.66,285.55,399.18,286.24z"/>
                                    <path fill="#0D8487" d="M376.29,276.59c0.29-0.82,0.59-1.64,1.03-2.39c0.68-0.01,0.68,0.55,0.78,0.97c0.32,1.4,0.56,2.82,0.83,4.22
                                        c2.05,10.45,4.07,20.91,6.1,31.36c0.09,0.46,0.22,0.91,0.13,1.38c-0.29,0.78-0.71,1.5-1.17,2.19c-0.71-0.1-0.58-0.73-0.66-1.15
                                        c-1-5.11-2.01-10.22-3-15.33c-1.26-6.52-2.53-13.04-3.8-19.56C376.43,277.71,376.33,277.15,376.29,276.59z"/>
                                    <path fill="#0B9396" d="M314.23,307.28c0-1.34,0-2.68,0-4.01c0.54-0.26,0.79,0.2,1.07,0.48c1.3,1.33,2.56,2.7,3.82,4.07
                                        c1.49,1.61,2.99,3.21,4.48,4.81c1.81,1.95,3.6,3.91,5.42,5.85c0.12,0.12,0.2,0.27,0.23,0.43c-0.39,0.98-0.82,1.93-1.44,2.79
                                        c-0.23,0.09-0.38-0.06-0.51-0.21c-2.93-3.13-5.87-6.24-8.77-9.4c-1.16-1.27-2.38-2.5-3.54-3.78
                                        C314.7,307.99,314.39,307.69,314.23,307.28z"/>
                                    <path fill="#12B1B1" d="M396.37,248.38c0.37,2.72,1.02,5.39,1.54,8.08c1.1,5.68,2.16,11.37,3.29,17.04
                                        c0.43,2.17,0.71,4.37,1.38,6.49c-0.4,0.86-0.8,1.73-1.36,2.5c-0.51-0.33-0.54-0.9-0.64-1.41c-1.79-8.95-3.48-17.92-5.24-26.87
                                        c-0.3-1.54-0.62-3.07-0.9-4.61c-0.08-0.45-0.24-0.92,0.17-1.32C395.19,248.28,395.79,248.11,396.37,248.38z"/>
                                    <path fill="#6AA8AD" d="M334.78,285.25c0.75-0.07,1.44,0.21,2.13,0.43c7.29,2.38,14.57,4.78,21.87,7.15
                                        c1.95,0.64,3.93,1.21,5.89,1.82c0.34,0.71,0.67,1.43,0.85,2.2c-0.6,0.4-1.17,0.04-1.71-0.13c-2.77-0.86-5.51-1.79-8.26-2.69
                                        c-5.92-1.92-11.84-3.85-17.77-5.77c-0.51-0.16-1.02-0.29-1.55-0.4C335.66,287.03,335.13,286.19,334.78,285.25z"/>
                                    <path fill="#67A6AA" d="M336.23,287.85c0.35-0.44,0.74-0.14,1.09-0.02c6.1,1.99,12.2,3.99,18.3,5.97c3.1,1.01,6.2,1.98,9.31,2.96
                                        c0.19,0.06,0.39,0.06,0.59,0.09c0.42,0.76,0.73,1.57,0.97,2.4c-5.12-1.67-10.24-3.35-15.36-5.02c-4.21-1.37-8.42-2.72-12.62-4.08
                                        c-0.34-0.11-0.73-0.32-0.86,0.27C337.11,289.61,336.61,288.76,336.23,287.85z"/>
                                    <path fill="#54979B" d="M370.5,309.28c0.33,0.8,0.65,1.6,0.98,2.41c-0.44,0.38-0.89,0.12-1.32-0.01
                                        c-3.77-1.14-7.49-2.42-11.24-3.63c-4.28-1.39-8.58-2.74-12.84-4.2c-0.44-0.15-0.89-0.29-1.28-0.56c-0.38-0.68-0.76-1.36-1.14-2.04
                                        c-0.23-0.46,0.11-0.51,0.41-0.54c0.3-0.02,0.59,0.1,0.87,0.19c5.1,1.66,10.21,3.3,15.31,4.98c3.23,1.06,6.47,2.09,9.71,3.12
                                        C370.16,309.07,370.35,309.14,370.5,309.28z"/>
                                    <path fill="#0C989A" d="M381.88,263.15c0.34-0.8,0.67-1.61,1.01-2.41c0.74,0.12,0.62,0.78,0.71,1.24
                                        c0.97,5.01,1.96,10.01,2.93,15.02c1.33,6.87,2.66,13.75,4.01,20.62c0.23,1.14,0.42,2.29,0.62,3.44c-0.23,0.66-0.58,1.25-0.98,1.81
                                        c-0.67-0.03-0.62-0.59-0.71-1.02c-0.98-4.73-1.85-9.47-2.79-14.21c-1.31-6.66-2.58-13.33-3.91-19.99
                                        C382.48,266.15,382.24,264.64,381.88,263.15z"/>
                                    <path fill="#488E92" d="M373.7,317.3c0.08,0.13,0.16,0.26,0.24,0.39c0.34,0.16,0.43,0.54,0.68,0.78c0.13,0.19,0.22,0.4,0.25,0.64
                                        c-0.03,0.32,0.12,0.7-0.27,0.93c-0.42,0.12-0.79-0.06-1.16-0.18c-6.61-2.18-13.24-4.28-19.85-6.47c-1.23-0.41-2.46-0.83-3.75-1.04
                                        c-0.6-0.91-1.16-1.84-1.58-2.85c0.46-0.41,0.95-0.19,1.41-0.04c1.49,0.48,2.99,0.94,4.48,1.43c6.37,2.08,12.73,4.19,19.12,6.18
                                        C373.44,317.1,373.58,317.18,373.7,317.3z"/>
                                    <path fill="#169EA1" d="M419.59,254.77c-0.06,1.06-0.12,2.13-0.18,3.19c-0.09,0.11-0.13,0.25-0.19,0.38
                                        c-1.85,3.17-3.86,6.24-5.8,9.36c-4.87,7.82-9.77,15.61-14.64,23.43c-0.72,1.16-1.46,2.32-2.18,3.48c-0.19,0.3-0.35,0.66-0.8,0.68
                                        c-0.28-0.15-0.13-0.44-0.22-0.65c3.14-5.43,6.17-10.94,9.07-16.5c0.07-0.14,0.19-0.26,0.29-0.39c1.18-1.48,2.04-3.17,3.04-4.76
                                        c3.65-5.77,7.21-11.6,10.9-17.34C419.1,255.35,419.09,254.85,419.59,254.77z"/>
                                    <path fill="#0D9799" d="M314.23,307.28c1.76,1.57,3.26,3.4,4.85,5.14c1.03,1.13,2.13,2.18,3.14,3.34c1.79,2.05,3.72,3.97,5.59,5.94
                                        c-0.23,0.89-0.73,1.64-1.2,2.41c-0.48,0.59-0.79,0.03-1.03-0.23c-1.14-1.25-2.35-2.44-3.48-3.7c-1.44-1.61-2.93-3.17-4.41-4.73
                                        c-1.03-1.08-1.94-2.28-3.05-3.29c-0.2-0.18-0.3-0.44-0.42-0.67C314.23,310.08,314.23,308.68,314.23,307.28z"/>
                                    <path fill="#96C8CF" d="M348.28,253.75c-0.37,0.04-0.72-0.06-1.07-0.18c-5.99-1.96-11.99-3.9-17.98-5.86
                                        c-0.62-0.2-1.21-0.51-1.81-0.77c0.81-0.38,1.7-0.19,2.54-0.32c1.34-0.21,2.71-0.2,4.07-0.28c1.45-0.06,2.65,0.75,3.97,1.13
                                        c3,0.86,5.94,1.91,8.91,2.88C347.46,251.44,347.93,252.57,348.28,253.75z"/>
                                    <path fill="#579A9E" d="M370.5,309.28c-0.44,0.03-0.85-0.05-1.27-0.19c-6.5-2.13-13-4.26-19.5-6.38c-1.74-0.57-3.48-1.11-5.22-1.65
                                        c-0.29-0.09-0.7-0.48-0.84,0.19c-0.5-0.84-1.09-1.64-1.42-2.58c0.28-0.36,0.57-0.05,0.81,0.02c6.01,1.94,12,3.91,18.01,5.86
                                        c2.87,0.93,5.76,1.82,8.63,2.72C370.04,307.91,370.32,308.57,370.5,309.28z"/>
                                    <path fill="#3F878A" d="M377.52,326.31c-0.55,0.48-1.19,0.16-1.79,0.2c-3.05-0.95-6.09-1.93-9.11-2.96
                                        c-3.72-1.26-7.52-2.28-11.19-3.7c-0.5-0.19-1.03-0.25-1.56-0.31c-0.56-0.76-0.98-1.6-1.38-2.46c-0.18-0.75,0.37-0.56,0.71-0.5
                                        c0.65,0.13,1.29,0.33,1.93,0.54c6.51,2.19,13.07,4.23,19.59,6.4c0.58,0.19,1.16,0.28,1.76,0.29
                                        C377.24,324.47,377.23,325.45,377.52,326.31z"/>
                                    <path fill="#119B9C" d="M391.16,301.06c-0.8-0.77-0.58-1.85-0.77-2.78c-0.91-4.31-1.73-8.63-2.58-12.95
                                        c-1.42-7.28-2.84-14.55-4.25-21.83c-0.18-0.93-0.16-1.9-0.68-2.75c0.3-0.72,0.6-1.44,0.9-2.16c0.78,3.21,1.32,6.47,1.96,9.71
                                        c0.78,3.93,1.56,7.85,2.32,11.78c1.17,6.01,2.33,12.01,3.48,18.03c0.09,0.5,0.24,0.96,0.45,1.42
                                        C391.81,300.08,391.52,300.59,391.16,301.06z"/>
                                    <path fill="#0F9EA1" d="M419.59,254.77c-0.67,1.52-1.68,2.83-2.55,4.23c-3.61,5.85-7.26,11.68-10.93,17.5
                                        c-0.29,0.47-0.45,1.14-1.16,1.24c1.44-2.82,2.89-5.63,4.31-8.46c1.93-3.84,3.83-7.68,5.75-11.52c0.1-0.33,0.11-0.68,0.26-1
                                        c0.12-0.28,0.26-0.55,0.39-0.82c0.15-0.26,0.26-0.54,0.36-0.82c0.03-0.08,0.07-0.15,0.12-0.22c0.25-0.24,0.41-0.53,0.5-0.87
                                        c0.19-0.47,0.43-0.91,0.64-1.37c0.57-0.98,1.06-1.99,1.53-3.02c0.15-0.33,0.27-0.69,0.62-0.88c0.39,0.56,0.09,1.2,0.2,1.8
                                        c0.01,0.67,0.01,1.34,0.02,2C419.62,253.3,419.6,254.03,419.59,254.77z"/>
                                    <path fill="#458B8F" d="M349.84,312.33c0.34-0.46,0.72-0.17,1.08-0.06c5.49,1.78,10.98,3.58,16.47,5.35
                                        c2.43,0.78,4.87,1.52,7.31,2.28c0.22-0.02,0.4,0.05,0.55,0.22c0.34,0.72,0.95,1.35,0.65,2.26c-0.7,0.15-1.3-0.22-1.92-0.42
                                        c-6.5-2.13-13.03-4.17-19.51-6.36c-1.14-0.38-2.33-0.6-3.43-1.1C350.58,313.82,350.14,313.11,349.84,312.33z"/>
                                    <path fill="#0C9495" d="M380.78,265.78c0.26-0.67,0.52-1.33,0.79-2c0.61-0.01,0.67,0.46,0.75,0.87c0.77,4.18,1.61,8.36,2.42,12.53
                                        c1.1,5.68,2.2,11.35,3.31,17.02c0.56,2.87,1.09,5.74,1.71,8.6c0.06,0.27,0,0.53-0.02,0.79c-0.26,0.5-0.51,0.99-0.77,1.49
                                        c-0.56-0.22-0.62-0.74-0.72-1.23c-1.3-6.47-2.51-12.96-3.79-19.44C383.22,278.22,382.11,271.98,380.78,265.78z"/>
                                    <path fill="#107176" d="M370.86,289.61c0.29-0.82,0.58-1.64,1.03-2.4c0.56,0.04,0.55,0.52,0.61,0.87
                                        c1.42,7.36,2.87,14.71,4.3,22.07c0.76,3.92,1.5,7.85,2.29,11.77c0.09,0.45,0.26,0.9,0.04,1.36c-0.24,0.66-0.57,1.27-0.99,1.83
                                        c-0.57-0.43-0.57-1.11-0.69-1.71c-1.79-9.27-3.59-18.54-5.42-27.81C371.64,293.61,371.32,291.6,370.86,289.61z"/>
                                    <path fill="#4E9397" d="M372.17,313.47c0.36,0.63,0.62,1.3,0.8,2.01c-0.47,0.43-0.95,0.15-1.41,0.01
                                        c-1.94-0.63-3.88-1.24-5.81-1.87c-5.71-1.87-11.42-3.73-17.14-5.57c-0.45-0.14-0.9-0.23-1.35-0.35c-0.55-0.83-1.06-1.68-1.46-2.6
                                        c0.43-0.34,0.83-0.05,1.23,0.06c3.49,1.01,6.92,2.23,10.37,3.34c4.53,1.47,9.08,2.89,13.59,4.44
                                        C371.4,313.08,371.82,313.19,372.17,313.47z"/>
                                    <path fill="#0D797D" d="M373.13,284.22c0.3-0.75,0.61-1.5,0.91-2.24c0.71,0.05,0.66,0.65,0.75,1.09c0.46,2.22,0.89,4.45,1.32,6.67
                                        c1.77,9,3.47,18.01,5.26,27c0.12,0.58,0.43,1.13,0.36,1.75c-0.25,0.65-0.57,1.26-0.99,1.83c-0.69-0.22-0.68-0.86-0.78-1.39
                                        c-1.07-5.32-2.08-10.66-3.12-15.99c-1.11-5.69-2.24-11.38-3.31-17.07C373.43,285.31,373.39,284.74,373.13,284.22z"/>
                                    <path fill="#078E91" d="M379.55,268.79c0.21-0.54,0.43-1.07,0.64-1.61c0.78-0.09,0.7,0.57,0.78,0.99c0.34,1.74,0.7,3.47,1.03,5.2
                                        c2.06,10.67,4.14,21.35,6.22,32.02c0.08,0.43,0.15,0.85-0.09,1.26c-0.2,0.51-0.43,1.01-0.79,1.44c-0.47-0.31-0.52-0.84-0.61-1.32
                                        c-1.8-9.07-3.54-18.16-5.31-27.24c-0.57-2.95-1.18-5.9-1.73-8.85C379.59,270.05,379.49,269.43,379.55,268.79z"/>
                                    <path fill="#438A8D" d="M351.05,314.5c0.98-0.2,1.81,0.33,2.67,0.6c4.79,1.52,9.56,3.12,14.33,4.67c2.62,0.86,5.25,1.69,7.88,2.53
                                        c0.14,0.03,0.23,0.12,0.29,0.24c0.03,0.47,0.46,0.85,0.3,1.36c-0.47,0.3-0.94,0.19-1.44,0.02c-3.98-1.32-7.97-2.62-11.96-3.92
                                        c-3.26-1.06-6.53-2.09-9.8-3.13c-0.29-0.09-0.71-0.47-0.85,0.19C351.94,316.26,351.43,315.42,351.05,314.5z"/>
                                    <path fill="#00A5A6" d="M394.41,295.07c-0.61-1.4-0.72-2.93-1.02-4.41c-1.1-5.38-2.13-10.78-3.17-16.17
                                        c-1.29-6.66-2.58-13.32-3.86-19.99c-0.07-0.37-0.12-0.72-0.44-0.96c0.11-0.57,0.36-1.08,0.65-1.58c0.8,0.02,0.83,0.67,0.93,1.2
                                        c0.53,2.79,1.1,5.56,1.64,8.35c1.31,6.81,2.65,13.63,3.96,20.44c0.68,3.5,1.4,7,2.04,10.51c0.07,0.4,0.11,0.79,0.04,1.19
                                        C395.02,294.18,394.74,294.63,394.41,295.07z"/>
                                    <path fill="#0B8184" d="M376.29,276.59c0.75,1.19,0.72,2.59,1,3.9c1.13,5.44,2.17,10.9,3.22,16.36c1.09,5.65,2.16,11.31,3.24,16.96
                                        c0.04,0.2,0.06,0.39,0.26,0.5c-0.22,0.56-0.49,1.1-0.86,1.57c-0.68-0.3-0.65-0.96-0.77-1.53c-1.48-7.39-2.88-14.79-4.33-22.18
                                        c-0.75-3.83-1.46-7.66-2.25-11.48c-0.15-0.75-0.29-1.5-0.25-2.28C375.79,277.8,376.04,277.2,376.29,276.59z"/>
                                    <path fill="#10999B" d="M314.23,311.49c1.86,1.65,3.44,3.57,5.1,5.42c0.98,1.08,2.07,2.05,3,3.18c1.07,1.3,2.3,2.48,3.46,3.7
                                        c0.21,0.22,0.39,0.59,0.81,0.33c-0.38,0.91-0.84,1.79-1.4,2.61c-0.44,0.29-0.69-0.08-0.93-0.31c-1.85-1.78-3.53-3.72-5.29-5.59
                                        c-1.6-1.7-3.19-3.4-4.76-5.12C314.23,314.29,314.23,312.89,314.23,311.49z"/>
                                    <path fill="#148B91" d="M332.04,315.89c0.26-0.77,0.59-1.51,1.01-2.21c0.49-0.25,0.65,0.14,0.82,0.45
                                        c0.17,0.32,0.26,0.68,0.38,1.03c1.68,5.17,3.34,10.34,5.03,15.51c0.41,1.23,0.81,2.47,1.27,3.68c0,2.05,0,4.1,0,6.15
                                        c-0.01,0.19-0.1,0.34-0.3,0.21c-0.24-0.15-0.31-0.43-0.39-0.68c-2.52-7.8-5.04-15.6-7.61-23.38
                                        C332.16,316.41,332.12,316.15,332.04,315.89z"/>
                                    <path fill="#13888E" d="M332.04,315.89c0.23,0.02,0.32,0.15,0.4,0.37c2.47,7.63,4.95,15.26,7.45,22.89
                                        c0.17,0.53,0.18,1.12,0.53,1.6c0.2,0.18,0.15,0.38,0.04,0.58c-0.2,0.61-0.65,0.96-1.21,1.21c-0.41-0.24-0.53-0.67-0.67-1.08
                                        c-1.43-4.19-2.76-8.42-4.12-12.63c-1.15-3.58-2.41-7.13-3.46-10.74C331.27,317.32,331.62,316.59,332.04,315.89z"/>
                                    <path fill="#1A7A82" d="M333.64,344.37c-0.78,0.25-1.58,0.41-2.41,0.38c-0.45-0.31-0.53-0.83-0.68-1.3
                                        c-1.3-4.12-2.72-8.2-3.98-12.33c-0.29-0.95-0.65-1.88-0.99-2.82c0.55-0.99,1.11-1.99,1.66-2.98c0.53,0.03,0.58,0.5,0.7,0.85
                                        c1.89,5.77,3.73,11.56,5.65,17.32C333.69,343.77,333.8,344.06,333.64,344.37z"/>
                                    <path fill="#1A7680" d="M325.58,328.3c0.92,0.73,0.93,1.88,1.26,2.86c1.48,4.42,2.9,8.86,4.34,13.29c0.03,0.09,0.04,0.2,0.06,0.29
                                        c-0.91,0.34-1.86,0.33-2.81,0.38c-0.78-1.16-1.04-2.52-1.43-3.81c-0.94-3.09-2.07-6.12-3-9.22c-0.08-0.26-0.18-0.5-0.17-0.77
                                        C324.32,330.27,324.93,329.27,325.58,328.3z"/>
                                    <path fill="#0C7C80" d="M381.73,318.49c-0.88-1.36-0.87-2.97-1.18-4.48c-1.16-5.67-2.25-11.36-3.36-17.04
                                        c-0.9-4.61-1.79-9.23-2.67-13.84c-0.08-0.42-0.1-0.86-0.49-1.15c0.3-0.72,0.61-1.44,0.91-2.16c0.55,0.14,0.53,0.64,0.6,1.03
                                        c1.25,6.25,2.44,12.51,3.66,18.77c1.13,5.76,2.23,11.53,3.38,17.29C382.37,317.48,382.11,318.01,381.73,318.49z"/>
                                    <path fill="#0E6E73" d="M376.52,323.91c-0.1-0.48-0.68-0.83-0.38-1.41c-1.88-8.56-3.39-17.2-5.1-25.8c-0.34-1.7-0.7-3.39-1.02-5.1
                                        c0.28-0.66,0.56-1.33,0.84-1.99c0.83,0.63,0.63,1.63,0.8,2.46c0.95,4.67,1.81,9.37,2.71,14.05c1.11,5.76,2.24,11.51,3.36,17.26
                                        c0.11,0.59,0.27,1.16,0.41,1.74c-0.12,0.44-0.35,0.82-0.62,1.18C376.88,325.64,376.87,324.7,376.52,323.91z"/>
                                    <path fill="#0B888B" d="M385.17,312.12c-0.78-2.13-0.97-4.39-1.42-6.6c-0.79-3.86-1.53-7.73-2.28-11.6
                                        c-1.18-6.08-2.35-12.16-3.55-18.23c-0.1-0.52-0.01-1.16-0.6-1.5c0.14-0.65,0.43-1.25,0.75-1.83c0.84,0.09,0.76,0.83,0.86,1.35
                                        c0.43,2.33,0.93,4.64,1.37,6.96c1.3,6.81,2.65,13.61,3.96,20.41c0.56,2.88,1.09,5.76,1.71,8.63c0.07,0.32,0.16,0.65-0.01,0.97
                                        C385.77,311.21,385.53,311.7,385.17,312.12z"/>
                                    <path fill="#0F767A" d="M373.13,284.22c0.47-0.21,0.37,0.17,0.42,0.4c0.52,2.6,1.05,5.19,1.56,7.79c1,5.07,1.98,10.14,2.97,15.21
                                        c0.76,3.9,1.51,7.8,2.23,11.71c0.07,0.39,0.26,0.67,0.43,0.98c-0.16,0.52-0.43,0.98-0.76,1.41c-0.85-0.01-0.77-0.73-0.87-1.22
                                        c-0.5-2.62-1.04-5.24-1.54-7.86c-1.33-6.95-2.69-13.89-4.05-20.83c-0.38-1.93-0.67-3.88-1.16-5.79
                                        C372.56,285.4,372.78,284.78,373.13,284.22z"/>
                                    <path fill="#4B9094" d="M347.26,307.68c0.32-0.38,0.66-0.15,1-0.04c5.88,1.91,11.77,3.83,17.65,5.74c2.02,0.66,4.06,1.29,6.08,1.96
                                        c0.33,0.11,0.64,0.15,0.98,0.13c0.34,0.57,0.57,1.18,0.73,1.82c-0.44,0.03-0.85-0.05-1.27-0.19c-6.08-1.99-12.17-3.98-18.26-5.96
                                        c-1.58-0.51-3.17-0.99-4.74-1.51c-0.39-0.13-0.78-0.16-1.18-0.15C347.86,308.92,347.48,308.34,347.26,307.68z"/>
                                    <path fill="#068C8E" d="M379.55,268.79c0.66,2.15,0.91,4.39,1.36,6.58c1.24,6.06,2.4,12.14,3.58,18.21
                                        c0.89,4.55,1.76,9.09,2.65,13.64c0.06,0.29,0.14,0.58,0.21,0.87c-0.17,0.53-0.44,1.01-0.78,1.45c-0.48-0.31-0.52-0.84-0.62-1.31
                                        c-1.56-8.05-3.14-16.09-4.7-24.14c-0.76-3.93-1.51-7.86-2.3-11.78c-0.08-0.39-0.14-0.79-0.4-1.12
                                        C378.81,270.36,379.13,269.56,379.55,268.79z"/>
                                    <path fill="#04A8A8" d="M395.17,293.65c-0.68-2.15-0.93-4.4-1.38-6.61c-1.17-5.71-2.26-11.43-3.37-17.16
                                        c-1.1-5.66-2.19-11.31-3.25-16.97c-0.08-0.44-0.22-0.75-0.6-0.96c0.25-0.61,0.49-1.22,0.74-1.83c0.7-0.04,0.66,0.54,0.75,0.96
                                        c0.93,4.55,1.8,9.1,2.68,13.66c1.26,6.52,2.54,13.04,3.8,19.56c0.5,2.59,1.01,5.17,1.51,7.76
                                        C395.81,292.63,395.56,293.18,395.17,293.65z"/>
                                    <path fill="#129C9F" d="M314.23,315.69c0.87,0.3,1.34,1.08,1.92,1.69c1.47,1.53,2.88,3.13,4.33,4.69c1.27,1.36,2.56,2.71,3.85,4.05
                                        c0.25,0.26,0.46,0.59,0.88,0.59c-0.39,0.91-0.86,1.78-1.42,2.6c-0.49,0.29-0.73-0.14-1-0.39c-1.09-1.03-2.04-2.2-3.07-3.29
                                        c-1.86-1.96-3.69-3.94-5.5-5.94C314.23,318.36,314.23,317.03,314.23,315.69z"/>
                                    <path fill="#129FA1" d="M314.23,319.7c0.87,0.3,1.34,1.08,1.93,1.69c1.47,1.53,2.88,3.13,4.32,4.69c0.83,0.91,1.67,1.81,2.51,2.71
                                        c0.22,0.24,0.42,0.53,0.81,0.53c-0.45,0.98-0.98,1.92-1.59,2.81c-0.49,0.58-0.79,0.04-1.04-0.23c-1.25-1.34-2.54-2.65-3.76-4.01
                                        c-0.78-0.87-1.61-1.69-2.41-2.53c-0.3-0.31-0.61-0.62-0.77-1.03C314.23,322.78,314.23,321.24,314.23,319.7z"/>
                                    <path fill="#01ABAB" d="M396.04,292.07c-0.77-0.7-0.62-1.73-0.8-2.6c-1.4-6.95-2.72-13.92-4.07-20.88
                                        c-1.11-5.72-2.23-11.45-3.37-17.17c-0.09-0.45,0.14-1.05-0.49-1.31c0.22-0.53,0.45-1.05,0.67-1.58c0.71,0.29,0.42,1,0.52,1.48
                                        c1.19,5.78,2.3,11.57,3.43,17.36c1.41,7.22,2.81,14.44,4.21,21.66c0.11,0.58-0.12,1.3,0.66,1.61
                                        C396.54,291.12,396.29,291.6,396.04,292.07z"/>
                                    <path fill="#519599" d="M372.17,313.47c-1.68-0.27-3.24-0.97-4.84-1.48c-6.1-1.97-12.19-3.97-18.29-5.94
                                        c-1.07-0.35-2.16-0.64-3.24-0.96c-0.4-0.56-0.77-1.14-1-1.8c1.63,0.23,3.11,0.92,4.66,1.42c5.95,1.91,11.87,3.89,17.82,5.77
                                        c1.38,0.44,2.72,1.06,4.2,1.21C371.76,312.26,372.03,312.84,372.17,313.47z"/>
                                    <path fill="#0EB0B0" d="M394.56,248.38c0.11,1.66,0.57,3.26,0.88,4.88c1.15,6.08,2.33,12.16,3.54,18.23c0.73,3.67,1.3,7.37,2.23,11
                                        c-0.2,0.56-0.46,1.07-0.83,1.54c-0.57-2.25-0.96-4.53-1.4-6.8c-0.83-4.26-1.71-8.5-2.54-12.76c-0.78-4-1.51-8-2.27-12
                                        c-0.26-1.36-0.53-2.73-0.8-4.09C393.76,248.17,394.16,248.17,394.56,248.38z"/>
                                    <path fill="#0F8F93" d="M340.41,334.13c-0.51-0.13-0.45-0.61-0.57-0.96c-2.02-6.15-4.02-12.31-6.04-18.46
                                        c-0.13-0.4-0.1-0.99-0.76-1.03c0.35-0.96,0.7-1.91,1.21-2.8c0.74,0.05,0.72,0.7,0.87,1.17c1.59,4.98,3.2,9.96,4.85,14.92
                                        c0.2,0.6,0.45,1.18,0.57,1.81c0,1.47,0.01,2.93-0.01,4.4C340.54,333.5,340.67,333.84,340.41,334.13z"/>
                                    <path fill="#069093" d="M329.26,318.91c-1.66-1.31-2.92-3-4.34-4.54c-1.03-1.12-2.12-2.2-3.13-3.35c-2.21-2.53-4.58-4.92-6.89-7.36
                                        c-0.18-0.19-0.36-0.4-0.67-0.4c0-0.93,0-1.87,0-2.8c2.7,2.88,5.41,5.74,8.1,8.64c2.14,2.31,4.25,4.65,6.38,6.97
                                        c0.4,0.44,0.87,0.82,1.31,1.23C329.92,317.91,329.59,318.41,329.26,318.91z"/>
                                    <path fill="#46BABE" d="M412.83,261.02c-0.54-1.81-0.82-3.67-1.14-5.53c-0.41-2.38-1.11-4.7-1.29-7.12
                                        c1.15-0.27,2.31-0.06,3.46-0.12c0.58,0.29,0.48,0.89,0.58,1.38c0.39,1.97,0.71,3.96,1.23,5.91c0.04,0.1,0.07,0.2,0.07,0.3
                                        c-0.01,0.26-0.17,0.46-0.24,0.7c-0.29,0.3-0.21,0.85-0.7,1.01C414.03,258.65,413.64,259.95,412.83,261.02z"/>
                                    <path fill="#177D84" d="M333.64,344.37c-1.68-5.14-3.35-10.29-5.05-15.42c-0.41-1.22-0.66-2.5-1.34-3.62
                                        c0.26-0.64,0.58-1.25,0.99-1.81c0.7-0.27,0.78,0.33,0.93,0.72c0.52,1.34,0.86,2.73,1.32,4.09c1.54,4.58,2.98,9.19,4.52,13.76
                                        c0.14,0.41,0.26,0.83,0.35,1.25c0.09,0.44-0.06,0.7-0.5,0.79C334.46,344.28,334.06,344.39,333.64,344.37z"/>
                                    <path fill="#0A9193" d="M388.15,306.65c-0.49-2.57-0.97-5.13-1.46-7.7c-1.11-5.75-2.22-11.5-3.34-17.24
                                        c-0.83-4.25-1.66-8.51-2.53-12.75c-0.12-0.6,0.13-1.37-0.62-1.77c0.2-0.47,0.39-0.94,0.59-1.4c0.77,0.4,0.57,1.23,0.7,1.85
                                        c1.11,5.45,2.17,10.91,3.22,16.37c1.29,6.69,2.57,13.39,3.86,20.09c0.07,0.35,0.27,0.68,0.4,1.01
                                        C388.78,305.66,388.49,306.17,388.15,306.65z"/>
                                    <path fill="#3B8487" d="M353.86,319.54c0.45-0.5,0.94-0.18,1.38-0.02c3.82,1.46,7.78,2.5,11.64,3.83c2.6,0.9,5.25,1.67,7.85,2.59
                                        c0.36,0.13,0.82,0.11,1.01,0.56c-1.87,0-3.74,0-5.61,0c-4.43-1.55-8.96-2.82-13.39-4.41c-0.54-0.19-1.1-0.26-1.66-0.37
                                        C354.59,321.04,354.16,320.32,353.86,319.54z"/>
                                    <path fill="#13848B" d="M331,318.08c0.66,0.44,0.64,1.2,0.85,1.84c1.73,5.23,3.46,10.46,5.12,15.72c0.73,2.31,1.47,4.61,2.27,6.9
                                        c-0.42,0.32-0.84,0.62-1.4,0.6c-0.53-0.56-0.63-1.32-0.84-2.01c-1.35-4.33-2.79-8.64-4.21-12.95c-0.91-2.76-1.69-5.56-2.71-8.28
                                        C330.35,319.28,330.58,318.63,331,318.08z"/>
                                    <path fill="#178087" d="M334.84,344.13c0.42-0.24,0.31-0.58,0.2-0.94c-0.5-1.58-0.96-3.17-1.48-4.75
                                        c-1.51-4.64-3.03-9.27-4.57-13.9c-0.13-0.4-0.1-0.99-0.76-1.02c0.34-0.67,0.69-1.33,1.03-2c0.68-0.01,0.78,0.54,0.94,1
                                        c1.45,4.27,2.81,8.56,4.19,12.84c0.75,2.32,1.55,4.62,2.27,6.94c0.15,0.49,0.45,1.03-0.22,1.41
                                        C335.93,343.91,335.41,344.11,334.84,344.13z"/>
                                    <path fill="#078A8C" d="M378.55,271.19c0.64-0.19,0.52,0.36,0.58,0.65c0.62,3.05,1.21,6.1,1.81,9.16
                                        c1.11,5.65,2.23,11.3,3.34,16.95c0.7,3.57,1.38,7.15,2.07,10.72c0.06,0.29,0.15,0.58,0.23,0.87c-0.14,0.42-0.32,0.82-0.63,1.15
                                        c-1.11-4.16-1.72-8.43-2.59-12.64c-1.11-5.38-2.13-10.78-3.18-16.17c-0.56-2.86-1.1-5.72-1.64-8.58c-0.07-0.37-0.14-0.72-0.49-0.94
                                        C378.17,271.95,378.28,271.54,378.55,271.19z"/>
                                    <path fill="#107478" d="M372.36,286.03c0.77,0.36,0.57,1.16,0.69,1.75c1.59,7.92,3.13,15.86,4.66,23.79
                                        c0.57,2.96,1.08,5.93,1.67,8.88c0.09,0.44,0.01,1.05,0.61,1.28c-0.21,0.56-0.48,1.1-0.86,1.57c-1-4.39-1.78-8.83-2.62-13.25
                                        c-0.8-4.2-1.65-8.38-2.48-12.57c-0.64-3.25-1.27-6.5-1.9-9.75c-0.04-0.2-0.04-0.4-0.24-0.52
                                        C371.98,286.79,372.08,286.38,372.36,286.03z"/>
                                    <path fill="#0B7E82" d="M382.59,316.91c-0.83-0.67-0.63-1.7-0.81-2.55c-0.82-3.98-1.54-7.99-2.31-11.99
                                        c-1.17-6.07-2.35-12.15-3.55-18.22c-0.29-1.45-0.43-2.94-0.97-4.34c0.15-0.49,0.29-0.98,0.59-1.41c0.66,2.12,0.93,4.33,1.37,6.49
                                        c1.08,5.33,2.1,10.67,3.14,16c0.9,4.62,1.8,9.24,2.67,13.86c0.08,0.41,0.26,0.75,0.41,1.11
                                        C383.05,316.28,382.84,316.61,382.59,316.91z"/>
                                    <path fill="#1B737D" d="M323.81,331.32c0.6,0.56,0.61,1.37,0.85,2.08c1.21,3.65,2.4,7.3,3.59,10.95c0.08,0.25,0.12,0.51,0.18,0.77
                                        c-0.79,0.16-1.59,0.26-2.4,0.21c-0.08-0.1-0.18-0.2-0.22-0.33c-1.24-3.68-2.46-7.36-3.58-11.08
                                        C322.67,333.02,323.21,332.15,323.81,331.32z"/>
                                    <path fill="#148289" d="M336.45,343.71c0.3-0.41,0.14-0.81,0-1.23c-1.51-4.58-3.01-9.16-4.51-13.75c-0.67-2.05-1.33-4.11-1.99-6.17
                                        c-0.13-0.41-0.24-0.84-0.69-1.05c0.22-0.56,0.45-1.12,0.82-1.61c0.37,0.06,0.44,0.37,0.53,0.65c2.4,7.39,4.8,14.79,7.19,22.18
                                        c0.04,0.12,0.03,0.26,0.04,0.4C337.43,343.45,336.97,343.66,336.45,343.71z"/>
                                    <path fill="#077F84" d="M321.83,263.34c-1.14-0.8-2.02-1.87-2.96-2.87c-1.54-1.64-3-3.36-4.64-4.9c0-2.39,0.01-4.78,0.01-7.17
                                        c0.18,0.32,0.37,0.64,0.55,0.96c0.96,1.4,1.7,2.93,2.37,4.48c0.14,0.3,0.28,0.6,0.42,0.89c0.36,0.49,0.52,1.08,0.86,1.58
                                        c0.21,0.26,0.26,0.58,0.35,0.88c0.88,1.75,1.76,3.5,2.64,5.25C321.57,262.73,321.7,263.04,321.83,263.34z"/>
                                    <path fill="#159296" d="M340.42,328.52c-0.12-0.15-0.29-0.29-0.35-0.46c-1.69-5.17-3.36-10.34-5.05-15.5
                                        c-0.19-0.58-0.18-1.26-0.76-1.68c0.27-0.67,0.54-1.33,0.81-2c0.77,0.06,0.78,0.74,0.95,1.23c1.28,3.61,2.34,7.29,3.58,10.92
                                        c0.31,0.91,0.69,1.8,0.95,2.73C340.47,325.35,340.71,326.94,340.42,328.52z"/>
                                    <path fill="#11A2A4" d="M314.23,324.32c2.2,1.98,4.11,4.25,6.13,6.4c0.52,0.55,0.82,1.49,1.85,1.41c-0.19,0.86-0.99,1.37-1.24,2.19
                                        c-0.22,0.07-0.4-0.04-0.54-0.17c-2.16-2.13-4.24-4.32-6.2-6.63C314.23,326.45,314.23,325.38,314.23,324.32z"/>
                                    <path fill="#1C717B" d="M322.22,333.93c0.86,1.06,0.98,2.42,1.41,3.65c0.76,2.15,1.43,4.33,2.14,6.5c0.13,0.41,0.31,0.81,0.25,1.26
                                        c-0.73,0.12-1.46,0.23-2.2,0.17c-0.82-3.18-1.97-6.26-3-9.37C321.22,335.36,321.69,334.63,322.22,333.93z"/>
                                    <path fill="#398285" d="M355.07,321.73c0.27-0.35,0.58-0.18,0.9-0.1c2.58,0.63,5,1.79,7.57,2.47c1.96,0.52,3.87,1.19,5.76,1.91
                                        c0.3,0.12,0.67,0.12,0.82,0.5c-1.67,0-3.34,0-5.01,0c-2.83-0.82-5.58-1.88-8.41-2.71c-0.22-0.07-0.45-0.13-0.63-0.28
                                        C355.65,322.97,355.31,322.38,355.07,321.73z"/>
                                    <path fill="#0C979B" d="M335.78,307.04c0.23-0.59,0.46-1.18,0.68-1.77c0.74-0.22,0.81,0.4,0.96,0.82c0.67,1.91,1.21,3.87,1.86,5.79
                                        c0.47,1.38,1.04,2.74,1.26,4.2c0,1.16,0,2.31,0,3.47c-0.31,0.52-0.55,0.17-0.74-0.09c-0.24-0.32-0.37-0.71-0.48-1.09
                                        c-1.08-3.46-2.3-6.88-3.35-10.35C335.87,307.69,335.85,307.36,335.78,307.04z"/>
                                    <path fill="#1E6E78" d="M320.83,336.14c0.51,0.06,0.45,0.53,0.56,0.84c0.83,2.49,1.62,5,2.44,7.49c0.11,0.35,0.28,0.69,0,1.03
                                        c-0.6,0.01-1.21,0.03-1.81,0.04c-0.24-0.09-0.36-0.28-0.43-0.51c-0.7-2.24-1.46-4.47-2.18-6.7
                                        C319.88,337.61,320.35,336.87,320.83,336.14z"/>
                                    <path fill="#11A6A7" d="M320.24,335.55c-0.24,0.77-0.82,1.33-1.23,1.99c-0.38,0.16-0.64-0.07-0.86-0.31
                                        c-1.27-1.47-2.75-2.75-3.93-4.3c0-1.13,0-2.27,0-3.4c0.35-0.09,0.55,0.17,0.76,0.37c1.79,1.68,3.31,3.6,5.08,5.3
                                        C320.17,335.29,320.21,335.42,320.24,335.55z"/>
                                    <path fill="#0B9498" d="M335.78,307.04c0.6,0.79,0.73,1.76,1.03,2.66c1.05,3.11,2.04,6.24,3.06,9.36c0.09,0.28,0.17,0.59,0.55,0.64
                                        c0.22,1.27,0.22,2.54,0,3.81c-0.4-0.26-0.49-0.69-0.62-1.1c-1.36-4.14-2.73-8.29-4.09-12.43c-0.13-0.41-0.21-0.85-0.63-1.1
                                        C335.31,308.27,335.54,307.66,335.78,307.04z"/>
                                    <path fill="#12AAAB" d="M314.23,332.93c0.58,0.12,0.82,0.61,1.17,1c1.15,1.26,2.25,2.56,3.61,3.62c-0.25,1-0.99,1.72-1.45,2.6
                                        c-0.28,0.23-0.51,0.04-0.7-0.14c-1-0.92-1.94-1.89-2.64-3.06C314.23,335.6,314.23,334.27,314.23,332.93z"/>
                                    <path fill="#0E989C" d="M340.42,315.89c-1.21-3.19-2.19-6.45-3.23-9.69c-0.12-0.38-0.12-0.91-0.73-0.93
                                        c0.18-0.76,0.43-1.5,0.79-2.2c0.69-0.01,0.74,0.58,0.9,1.01c0.65,1.85,1.27,3.7,1.85,5.57c0.16,0.51,0.43,0.97,0.55,1.48
                                        C340.47,312.72,340.71,314.31,340.42,315.89z"/>
                                    <path fill="#0D9597" d="M389.74,303.61c-0.53-2.62-1.07-5.25-1.59-7.87c-0.99-5-1.96-10-2.93-15c-1.03-5.33-2.06-10.65-3.06-15.99
                                        c-0.08-0.43-0.22-0.75-0.59-0.97c0.1-0.21,0.21-0.42,0.31-0.63c0.83,0.63,0.63,1.63,0.8,2.46c1.06,5.13,2.04,10.27,3.03,15.41
                                        c1.36,7.03,2.7,14.06,4.05,21.09c0.06,0.3,0.15,0.58,0.42,0.76C390.09,303.15,390.03,303.45,389.74,303.61z"/>
                                    <path fill="#10A1A4" d="M340.42,315.89c0-1.67,0-3.34,0-5.01c-0.47-0.87-0.23-1.82-0.27-2.73c-0.03-0.63-0.01-1.26,0-1.89
                                        c0.07-1.32,0.12-2.66-0.01-3.97c-0.14-1.38-0.72-2.66-1.46-3.84c0.22-0.86,0.44-1.72,0.7-2.76c0.68,0.91,1.21,1.65,1.21,2.68
                                        c-0.01,14.03,0,28.06,0,42.09c0,0.29,0.09,0.61-0.14,0.87c-0.01-0.19-0.03-0.39-0.04-0.58c0-2.2,0-4.41,0-6.61
                                        c0-1.87,0-3.74,0-5.61c0-1.67,0-3.34,0-5.01c0-1.27,0-2.54,0-3.81C340.42,318.43,340.42,317.16,340.42,315.89z"/>
                                    <path fill="#0F9C9F" d="M340.42,306.06c0,1.61,0,3.21,0,4.82c-0.41-0.07-0.46-0.41-0.56-0.73c-0.68-2.1-1.35-4.21-2.04-6.31
                                        c-0.1-0.31-0.22-0.63-0.56-0.78c0.27-0.87,0.55-1.73,0.82-2.6c0.63,0,0.7,0.54,0.85,0.95
                                        C339.46,302.95,339.99,304.49,340.42,306.06z"/>
                                    <path fill="#368082" d="M356.07,323.51c0.36,0,0.72-0.01,1.08,0.11c2.44,0.83,4.89,1.64,7.33,2.45c0.26,0.09,0.51,0.16,0.62,0.43
                                        c-2.29,0.02-4.57,0.03-6.86,0.05c-0.27,0-0.56,0.03-0.7-0.26C357.09,325.35,356.39,324.53,356.07,323.51z"/>
                                    <path fill="#206C76" d="M319.4,338.34c0.69,0.72,0.84,1.7,1.16,2.58c0.54,1.53,0.98,3.09,1.46,4.64c-1.12,0.25-2.26,0.16-3.4,0.17
                                        c0-0.03-0.01-0.08,0-0.1c1-0.74,0.98-0.74,0.57-2.04c-0.36-1.14-0.86-2.24-0.99-3.44C318.53,339.5,318.92,338.89,319.4,338.34z"/>
                                    <path fill="#12A4A6" d="M320.24,335.55c-1.43-1.14-2.58-2.54-3.81-3.88c-0.69-0.75-1.46-1.43-2.2-2.14c0-0.67,0-1.34,0-2.01
                                        c1.34,1.07,2.49,2.36,3.63,3.62c0.99,1.11,2.03,2.16,3.11,3.18C320.79,334.77,320.56,335.18,320.24,335.55z"/>
                                    <path fill="#226873" d="M318.2,340.14c0.78,1.6,1.15,3.33,1.76,4.99c0.1,0.29-0.13,0.39-0.4,0.42c-0.32,0.03-0.67-0.1-0.94,0.17
                                        c-0.47,0-0.94,0-1.41,0c-0.44-0.41-0.42-1-0.6-1.51c-0.14-0.38-0.36-0.68-0.61-0.98c-0.12-0.24-0.03-0.46,0.07-0.68
                                        c0.14-0.23,0.29-0.45,0.47-0.66c0.32-0.21,0.51-0.58,0.87-0.75C317.66,340.81,317.93,340.48,318.2,340.14z"/>
                                    <path fill="#15ADAD" d="M316.62,341.96c0.02,0.29-0.14,0.47-0.36,0.62c-1.03-0.11-1.38-1.05-2.03-1.63c0-1.33,0-2.67,0-4
                                        c0.98,0.71,1.52,1.84,2.46,2.59c0.28,0.22,0.45,0.59,0.87,0.61c-0.13,0.26-0.25,0.52-0.38,0.78
                                        C317.12,341.34,316.9,341.67,316.62,341.96z"/>
                                    <path fill="#148A8F" d="M395.74,344.61c-1.03-1.89-1.64-3.83-1.59-6.07c0.14-6.14,0.07-12.29,0.08-18.43
                                        c0.13-0.03,0.22,0.02,0.28,0.14c0.08,0.16,0.12,0.34,0.12,0.52c0.06,1.34,0.04,2.68,0.02,4.02c0.05,2.87,0.04,5.73,0.01,8.59
                                        c-0.01,1.1,0.06,2.2-0.03,3.3c-0.11,1.33,0.28,2.42,1.26,3.31c0.3,0.72,0.1,1.48,0.18,2.22C395.99,343,396.32,343.87,395.74,344.61
                                        z"/>
                                    <path fill="#286F7A" d="M395.74,344.61c0.01-0.82,0.03-1.64,0.04-2.46c1.06-1.88,2.26-3.67,3.41-5.49
                                        c0.18-0.29,0.54-1.12,0.94-0.08c-0.71,2.01-1.49,3.99-2.36,5.93c-0.16,0.29-0.31,0.58-0.41,0.9c-0.28,0.67-0.61,1.29-1.39,1.51
                                        c-0.06,0.01-0.11,0.02-0.17,0.03C395.78,344.83,395.76,344.72,395.74,344.61z"/>
                                    <path fill="#0D9EA2" d="M340.42,306.06c-0.63-0.65-0.64-1.57-0.99-2.34c-0.49-1.07-0.48-2.35-1.36-3.26
                                        c0.17-0.68,0.29-1.38,0.6-2.01c0.66-0.27,0.59,0.34,0.75,0.64C340.59,301.29,340.56,303.67,340.42,306.06z"/>
                                    <path fill="#1C616B" d="M395.59,294.64c0.25,0.13,0.16,0.39,0.21,0.59c0.45,0.62,0.24,1.33,0.27,2.01
                                        c0.03,0.82,0.02,1.64-0.02,2.46c0.02,0.42,0.02,0.84-0.15,1.23c-0.24,0.32-0.49,0.14-0.66-0.05c-0.35-0.38-0.81-0.69-0.97-1.23
                                        c0.03-0.94-0.08-1.89,0.06-2.83C394.75,296.11,395.17,295.37,395.59,294.64z"/>
                                    <path fill="#18B0AF" d="M314.23,340.95c0.9,0.27,1.23,1.24,2.03,1.63c-0.07,0.19-0.15,0.38-0.22,0.57c-0.34,1-0.92,1.84-1.67,2.57
                                        C314,344.14,314.26,342.54,314.23,340.95z"/>
                                    <path fill="#1E888D" d="M394.33,296.84c0.01,1.01,0.03,2.01,0.04,3.02c0.42,0.55,0.27,1.2,0.29,1.82c-0.01,0.99,0.03,1.99,0,2.98
                                        c-0.03,0.93,0.04,1.86-0.01,2.8c0.01,0.87,0.04,1.73,0,2.6c0.01,0.74,0.02,1.48,0.01,2.22c-0.03,0.74,0.03,1.48,0,2.22
                                        c-0.03,0.81,0.04,1.62-0.01,2.43c-0.09,1.06,0.32,2.17-0.29,3.18c-0.05,0-0.09,0-0.14,0c-0.02-5.21-0.04-10.41-0.05-15.62
                                        c-0.01-2.24-0.01-4.47,0-6.71C394.18,297.46,394.03,297.11,394.33,296.84z"/>
                                    <path fill="#236671" d="M314.36,345.72c0.47-0.92,1-1.79,1.67-2.57c1.1,0.54,0.87,1.67,1.17,2.57
                                        C316.26,345.72,315.31,345.72,314.36,345.72z"/>
                                    <path fill="#E5ECEE" d="M316.62,341.96c0.04-0.43,0.3-0.73,0.57-1.04c0.07,0.07,0.14,0.14,0.21,0.22
                                        C317.21,341.48,317.14,341.94,316.62,341.96z"/>
                                    <path fill="#E6F2F2" d="M414.79,257.55c0.2-0.34,0.4-0.69,0.6-1.03c0.11,0.08,0.12,0.17,0.04,0.28c0.02,0.39-0.16,0.7-0.41,0.97
                                        C414.94,257.69,414.86,257.62,414.79,257.55z"/>
                                    <path fill="#F8FBFC" d="M318.79,257.19c-0.22-0.22-0.34-0.49-0.4-0.79c-0.08-0.11-0.07-0.2,0.03-0.29c0.3,0.22,0.43,0.54,0.54,0.87
                                        C318.91,257.05,318.85,257.12,318.79,257.19z"/>
                                    <path fill="#8BC1C7" d="M317.16,253.83c-1.07-1.35-1.69-2.93-2.37-4.48c1.68,0.81,3.49,1.24,5.25,1.83
                                        c5.2,1.72,10.42,3.41,15.64,5.1c4.87,1.58,9.74,3.15,14.6,4.73c0.32,0.1,0.64,0.18,0.97,0.17c0.53,1.18,1.09,2.35,1.4,3.61
                                        c-2.9-0.73-5.71-1.76-8.55-2.69c-8.56-2.78-17.12-5.57-25.69-8.36C318,253.6,317.55,253.33,317.16,253.83z"/>
                                    <path fill="#0F6B70" d="M370.03,291.6c0.84,1.12,0.79,2.5,1.05,3.77c1.06,5.08,2.02,10.18,3,15.28c0.73,3.8,1.42,7.6,2.14,11.4
                                        c0.03,0.17,0.08,0.32-0.07,0.44c-0.07-0.06-0.14-0.13-0.22-0.19c-0.28-0.75-0.56-1.51-0.84-2.26c-0.29-0.26-0.24-0.65-0.36-0.98
                                        c-0.07-0.2-0.14-0.39-0.21-0.59c-0.31-0.28-0.3-0.67-0.36-1.03c-0.11-0.37-0.21-0.75-0.32-1.12c0.04-0.81-0.29-1.55-0.44-2.33
                                        c-1.35-6.92-2.7-13.84-4.04-20.76C369.58,292.7,369.8,292.15,370.03,291.6z"/>
                                    <path fill="#12696E" d="M369.35,293.24c0.81,0.56,0.55,1.5,0.71,2.25c0.93,4.37,1.76,8.76,2.62,13.14
                                        c0.46,2.34,0.88,4.68,1.34,7.02c0.06,0.29,0.13,0.52-0.18,0.68c-0.83-2.35-1.66-4.7-2.5-7.06c0-1.1-0.28-2.16-0.5-3.23
                                        c-0.61-3.1-1.19-6.21-1.81-9.3c-0.1-0.52-0.15-1.06-0.5-1.5C368.8,294.58,369.08,293.91,369.35,293.24z"/>
                                    <path fill="#55BEC2" d="M414,248.37c-1.2,0-2.41,0-3.61,0c-1.34,0-2.67,0-4.01,0c-1.4,0-2.8,0-4.21,0c-1,0-2,0-3.01,0
                                        c-0.94,0-1.87,0-2.81,0c-0.6,0-1.2,0-1.8,0c-0.4,0-0.8,0-1.2,0c-0.54,0-1.07,0-1.61,0c-1.21-0.02-2.42-0.03-3.63-0.05
                                        c0.33-0.25,0.71-0.14,1.06-0.14c9.24,0,18.48,0,27.72,0.01c0.9,0,1.8,0.07,2.7,0.1c-0.06,0.15-0.12,0.3-0.18,0.45
                                        c-0.58,1.38-1.09,2.79-2.01,4c-0.64,0.23-0.72-0.3-0.84-0.68c-0.25-0.75-0.39-1.54-0.48-2.32c-0.09-0.78-0.41-1.23-1.26-1.15
                                        C414.54,248.64,414.25,248.57,414,248.37z"/>
                                    <path fill="#12666C" d="M368.53,295.24c0.56-0.21,0.52,0.27,0.57,0.54c0.84,4.33,1.65,8.67,2.49,13c0.05,0.28,0.07,0.45-0.25,0.49
                                        c-0.81-1.75-1.37-3.6-2-5.42c-0.27-2.44-0.84-4.82-1.4-7.21C368.06,296.15,368.26,295.68,368.53,295.24z"/>
                                    <path fill="#18656B" d="M367.94,296.65c0.36,0.02,0.4,0.32,0.45,0.57c0.38,1.87,0.77,3.73,1.11,5.6c0.06,0.33,0.14,0.73-0.16,1.04
                                        c-0.68-1.7-1.39-3.39-2.02-5.12C367.04,297.96,367.64,297.32,367.94,296.65z"/>
                                    <path fill="#E1E7E9" d="M374.15,317.45c0.23,0.3,0.32,0.66,0.36,1.03c-0.55-0.01-0.42-0.5-0.57-0.8
                                        C374.01,317.61,374.08,317.53,374.15,317.45z"/>
                                    <path fill="#15848A" d="M419.61,339.95c0,0.8,0,1.6,0,2.41c-0.55,0.44-1.21,0.34-1.83,0.28c-3.34-0.33-6.69-0.59-10.03-0.9
                                        c-2.58-0.24-5.16-0.44-7.75-0.68c-0.3-0.03-0.6-0.02-0.88-0.14c-0.2-0.1-0.32-0.28-0.26-0.47c0.32-0.91,0.53-1.9,1.47-2.44
                                        c3.09,0.09,6.16,0.51,9.24,0.75c2.75,0.21,5.5,0.49,8.25,0.7C418.45,339.49,419.1,339.48,419.61,339.95z"/>
                                    <path fill="#16878D" d="M419.61,336.34c0.01,0.2,0.01,0.4,0.02,0.6c-0.01,0.6-0.01,1.2-0.02,1.81c-0.36,0.32-0.8,0.27-1.23,0.23
                                        c-5.89-0.53-11.77-1.04-17.66-1.54c-0.09-0.04-0.2-0.07-0.21-0.19c-0.09-0.74,0.74-2.29,1.42-2.66c3.63,0.33,7.27,0.65,10.91,0.97
                                        c1.85,0.16,3.7,0.34,5.55,0.48C418.81,336.07,419.25,336.02,419.61,336.34z"/>
                                    <path fill="#168187" d="M398.9,340.72c3.9,0.25,7.79,0.68,11.68,0.98c3.01,0.24,6,0.69,9.03,0.65c0,0.67,0,1.34,0,2
                                        c-0.39,0.34-0.87,0.32-1.33,0.26c-6.03-0.66-12.09-1.04-18.13-1.6c-0.7-0.06-1.4-0.16-1.98-0.62
                                        C397.92,341.63,398.23,341.1,398.9,340.72z"/>
                                    <path fill="#1B8087" d="M398.16,342.12c0.53,0.47,1.22,0.55,1.85,0.61c2.7,0.25,5.42,0.35,8.12,0.65c3.32,0.37,6.67,0.42,9.98,0.95
                                        c0.49,0.08,1,0.02,1.5,0.03c0.06,0.83-0.57,0.58-0.97,0.58c-6.52,0.01-13.05,0.01-19.57,0.01c-1.03,0-2.06-0.02-3.09-0.03
                                        c0.46-0.45,0.91-0.91,1.18-1.5c0.14-0.27,0.36-0.5,0.49-0.77C397.8,342.45,397.77,342.08,398.16,342.12z"/>
                                    <path fill="#16868C" d="M400.59,337.34c1.21-0.52,2.42,0.05,3.63,0.08c1.87,0.04,3.74,0.34,5.62,0.52
                                        c2.89,0.27,5.79,0.53,8.68,0.78c0.36,0.03,0.73,0.02,1.1,0.02c0,0.4,0,0.8,0,1.2c-3.98-0.34-7.96-0.65-11.93-1.01
                                        c-2.49-0.23-4.98-0.52-7.47-0.79C400.09,337.76,400.05,337.41,400.59,337.34z"/>
                                    <path fill="#3BB8B9" d="M419.63,288.83c-0.01,0.2-0.01,0.4-0.02,0.6c-1.39,0.42-2.72,0.23-4.03-0.32c-0.1-0.14-0.19-0.3-0.16-0.46
                                        c0.27-1.46,0.25-2.98,1-4.33c1.11-0.36,2.16-0.12,3.2,0.3C419.62,286.03,419.62,287.43,419.63,288.83z"/>
                                    <path fill="#45BABB" d="M419.61,284.62c-1.05-0.07-2.11-0.13-3.16-0.2c-0.25-0.2-0.23-0.47-0.18-0.73c0.27-1.44,0.39-2.9,0.8-4.31
                                        c0.68-0.78,1.31-0.82,2.55-0.17C419.61,281.02,419.61,282.82,419.61,284.62z"/>
                                    <path fill="#51BCBF" d="M419.61,279.21c-0.39,0-0.77-0.03-1.15-0.15c-0.44-0.14-0.91-0.15-1.2,0.35c-0.29-0.22-0.19-0.52-0.18-0.82
                                        c0.07-1.19,0.41-2.35,0.49-3.54c0.02-0.24,0.13-0.45,0.34-0.58c0.62-0.22,1.18-0.08,1.69,0.32c0,0.87,0.01,1.74,0.01,2.6
                                        C419.62,278.01,419.62,278.61,419.61,279.21z"/>
                                    <path fill="#31B6B7" d="M415.61,289.03c1.32,0.26,2.66,0.3,4,0.4c0,1.74,0,3.47,0,5.21c-0.3,0.27-0.66,0.29-1.03,0.24
                                        c-1.38-0.19-2.77-0.23-4.15-0.39c-0.22-0.22-0.18-0.49-0.14-0.75c0.23-1.38,0.58-2.73,0.86-4.1
                                        C415.21,289.38,415.32,289.14,415.61,289.03z"/>
                                    <path fill="#27B5B4" d="M414.45,294.45c1.2-0.52,2.39,0.14,3.6,0.08c0.49-0.02,1.04,0.09,1.56,0.12c0,1.14,0,2.27,0,3.41
                                        c-0.73,0.49-1.53,0.27-2.31,0.21c-1.22-0.09-2.43-0.32-3.65-0.16c-0.27-0.23-0.25-0.54-0.16-0.82
                                        C413.79,296.33,413.71,295.25,414.45,294.45z"/>
                                    <path fill="#23B3B3" d="M413.64,298.05c0.25-0.39,0.62-0.46,1.04-0.39c1.63,0.26,3.28,0.42,4.93,0.39c0.01,0.6,0.01,1.2,0.02,1.8
                                        c-0.01,0.07-0.01,0.13-0.02,0.2c-0.18,0.16-0.4,0.27-0.63,0.25c-1.91-0.21-3.84-0.18-5.74-0.58
                                        C412.9,299.06,413.11,298.52,413.64,298.05z"/>
                                    <path fill="#70C5C8" d="M419.22,258.16c0.06-0.07,0.13-0.14,0.19-0.2c0.12,0.66,0.28,1.32,0.21,2.01c0,1.2-0.01,2.41-0.01,3.61
                                        c-0.15,0.12-0.3,0.11-0.45,0.01c-0.14-0.18-0.18-0.39-0.2-0.61c-0.02-0.41,0.01-0.83-0.13-1.24c-0.05-0.36-0.11-0.71,0.2-0.99
                                        c0.08-0.1,0.29,0.12,0.25-0.01c-0.16-0.5-0.08-1.03-0.27-1.51C418.96,258.85,419.01,258.49,419.22,258.16z"/>
                                    <path fill="#5ABFC1" d="M419.61,274.8c-0.55-0.07-1.1-0.15-1.65-0.22c-0.53-0.98,0.05-1.94,0.05-2.92c0-0.51,0.11-1.05,0.21-1.57
                                        c0.09-0.29,0.17-0.57,0.4-0.79c0.35-0.2,0.69-0.18,1,0.08C419.61,271.19,419.61,273,419.61,274.8z"/>
                                    <path fill="#63C1C4" d="M419.61,269.39c-0.32,0-0.65,0-0.97,0c-0.62-0.68,0.03-1.42-0.1-2.13c0.01-0.32,0.01-0.65,0.07-0.96
                                        c0.16-0.48,0.17-0.96,0.09-1.45c-0.02-0.3,0.05-0.58,0.13-0.87c0.07-0.19,0.18-0.35,0.4-0.4c0.13,0,0.25,0,0.38,0
                                        c0,1.4,0.01,2.8,0.01,4.21C419.62,268.32,419.62,268.86,419.61,269.39z"/>
                                    <path fill="#1A8A8F" d="M419.61,336.34c-3.17-0.08-6.32-0.45-9.48-0.77c-1.84-0.18-3.69-0.28-5.53-0.44
                                        c-0.95-0.08-1.91-0.11-2.83-0.4c-0.13-1.15,0.35-2.04,1.18-2.79c0.94-0.23,1.87,0.04,2.78,0.13c4.28,0.41,8.57,0.69,12.85,1.15
                                        c0.36,0.04,0.74,0.04,1.03,0.31C419.61,334.47,419.61,335.4,419.61,336.34z"/>
                                    <path fill="#1A8D92" d="M419.61,333.53c-2.97-0.18-5.92-0.45-8.87-0.77c-1.77-0.19-3.55-0.29-5.33-0.43
                                        c-0.86-0.07-1.71-0.13-2.57-0.2c-0.12-0.86,0.13-1.54,0.95-1.93c3.06,0.08,6.09,0.48,9.14,0.72c1.89,0.15,3.77,0.29,5.66,0.5
                                        c0.36,0.04,0.74,0.03,1.03,0.31C419.61,332.33,419.61,332.93,419.61,333.53z"/>
                                    <path fill="#199195" d="M419.61,328.12c0.01,0.13,0.01,0.27,0.02,0.4c-0.01,0.54-0.01,1.07-0.02,1.61
                                        c-0.29,0.24-0.63,0.17-0.96,0.15c-4.31-0.33-8.62-0.77-12.93-1.1c-0.49-0.04-1-0.1-1.46-0.32c-0.29-0.83-0.04-1.52,0.8-2.14
                                        c1.14-0.27,2.26,0.05,3.38,0.14c3.18,0.26,6.37,0.54,9.55,0.83C418.54,327.74,419.14,327.73,419.61,328.12z"/>
                                    <path fill="#1B8F93" d="M419.61,331.73c-3.11-0.13-6.21-0.46-9.3-0.77c-1.85-0.18-3.7-0.29-5.55-0.42c-0.4-0.03-0.8,0.03-1.16-0.21
                                        c-0.26-0.53,0.04-0.8,0.47-1.01c1.14-0.23,2.26,0.06,3.38,0.16c3.71,0.32,7.43,0.63,11.14,0.96c0.4,0.04,0.81,0.07,1.02,0.49
                                        C419.61,331.19,419.61,331.46,419.61,331.73z"/>
                                    <path fill="#1B8F93" d="M419.61,330.92c-1.01-0.38-2.09-0.25-3.14-0.36c-2.69-0.3-5.41-0.39-8.11-0.66
                                        c-1.48-0.15-2.96-0.3-4.45-0.4c-0.15-0.36-0.09-0.63,0.3-0.78c2.73,0.26,5.46,0.52,8.19,0.76c1.74,0.16,3.49,0.33,5.24,0.42
                                        c0.67,0.03,1.31,0.13,1.97,0.22C419.61,330.39,419.61,330.66,419.61,330.92z"/>
                                    <path fill="#1C9397" d="M419.61,328.12c-2.82-0.26-5.64-0.53-8.47-0.77c-2.07-0.18-4.15-0.3-6.22-0.45c-0.12-0.99,0.06-1.85,1-2.4
                                        c1.23-0.23,2.45,0.09,3.66,0.18c3.04,0.22,6.07,0.58,9.11,0.75c0.34,0.02,0.66,0.05,0.93,0.3
                                        C419.61,326.52,419.61,327.32,419.61,328.12z"/>
                                    <path fill="#1C969A" d="M419.61,325.71c-3.32-0.02-6.61-0.45-9.91-0.78c-1.32-0.13-2.65-0.17-3.98-0.25
                                        c-0.13-1.09,0.2-1.86,0.98-2.29c3.77,0.43,7.55,0.7,11.32,1.02c0.57,0.05,1.14,0.07,1.59,0.49
                                        C419.61,324.51,419.61,325.11,419.61,325.71z"/>
                                    <path fill="#1C989C" d="M419.61,323.91c-3.93-0.34-7.86-0.66-11.78-1.02c-0.44-0.04-0.94-0.06-1.27-0.46
                                        c-0.23-0.48-0.05-0.82,0.36-1.09c1.03-0.35,2.04,0,3.06,0.08c2.91,0.23,5.82,0.44,8.71,0.77c0.33,0.04,0.66,0.07,0.92,0.32
                                        C419.61,322.97,419.61,323.44,419.61,323.91z"/>
                                    <path fill="#1B9A9D" d="M419.61,320.1c0.01,0.13,0.01,0.27,0.02,0.4c-0.01,0.2-0.01,0.4-0.02,0.6c-0.36,0.32-0.8,0.32-1.23,0.27
                                        c-2.6-0.32-5.22-0.41-7.83-0.73c-1.05-0.13-2.13-0.03-3.13-0.45c-0.31-0.37-0.18-0.7,0.1-1.02c0.31-0.27,0.67-0.24,1.04-0.21
                                        c3.44,0.23,6.88,0.62,10.32,0.86C419.15,319.84,419.4,319.91,419.61,320.1z"/>
                                    <path fill="#1C989C" d="M419.61,322.51c-2.9-0.21-5.8-0.44-8.69-0.77c-1.35-0.15-2.71-0.16-4.07-0.23
                                        c-0.23-0.55-0.02-0.91,0.49-1.14c3.65,0.33,7.3,0.66,10.94,0.97c0.45,0.04,0.95,0,1.32,0.37
                                        C419.61,321.97,419.61,322.24,419.61,322.51z"/>
                                    <path fill="#1B9A9D" d="M419.61,321.7c-2.76-0.26-5.51-0.56-8.27-0.76c-1.38-0.1-2.77-0.15-4.13-0.44
                                        c-0.15-0.19-0.13-0.34,0.11-0.42c2.8,0.27,5.6,0.6,8.41,0.78c1.29,0.08,2.57,0.36,3.88,0.24
                                        C419.61,321.3,419.61,321.5,419.61,321.7z"/>
                                    <path fill="#1E9C9F" d="M419.61,320.1c-3.17-0.08-6.31-0.46-9.46-0.75c-0.83-0.08-1.69-0.24-2.53-0.05
                                        c-0.22-1.09,0.2-1.97,0.89-2.76c0.93-0.18,1.85,0.05,2.77,0.12c2.21,0.17,4.42,0.41,6.64,0.56c0.59,0.04,1.2,0.07,1.69,0.48
                                        C419.61,318.5,419.61,319.3,419.61,320.1z"/>
                                    <path fill="#1FA1A4" d="M419.61,313.29c0,0.87,0,1.74,0,2.61c-0.29,0.27-0.66,0.32-1.03,0.28c-3.08-0.29-6.16-0.51-9.24-0.86
                                        c-0.1-0.01-0.19-0.07-0.28-0.11c-0.36-0.82,0-2.17,0.77-2.91c0.94-0.28,1.86,0.05,2.78,0.09c1.9,0.07,3.79,0.36,5.69,0.46
                                        C418.77,312.86,419.24,312.95,419.61,313.29z"/>
                                    <path fill="#1F9FA2" d="M408.99,315.09c3.06,0.13,6.09,0.46,9.13,0.78c0.49,0.05,0.99,0.02,1.49,0.02c0,0.6,0,1.2,0,1.8
                                        c-2.76-0.26-5.53-0.52-8.29-0.78c-0.96-0.09-1.91-0.15-2.87-0.22C408.29,316.04,408.31,315.46,408.99,315.09z"/>
                                    <path fill="#1FA3A6" d="M419.61,313.29c-2.75-0.26-5.51-0.52-8.26-0.77c-0.53-0.05-1.06-0.03-1.59-0.04
                                        c-0.3-0.7,0.06-1.24,0.45-1.77c0.68-0.52,1.42-0.16,2.13-0.11c2.09,0.14,4.18,0.3,6.26,0.55c0.36,0.04,0.73,0.07,1.02,0.34
                                        c0.01,0.47,0.01,0.93,0.02,1.4C419.62,313.02,419.61,313.15,419.61,313.29z"/>
                                    <path fill="#22AAAB" d="M419.63,306.07c-0.01,0.8-0.01,1.61-0.02,2.41c-0.3,0.23-0.64,0.14-0.97,0.12
                                        c-2.09-0.12-4.18-0.34-6.27-0.53c-0.39-0.04-0.8-0.08-1.15-0.3c-0.36-0.96-0.12-1.77,0.6-2.47c0.97-0.31,1.92,0.05,2.88,0.09
                                        c1.3,0.05,2.6,0.18,3.89,0.35c0.36,0.05,0.74,0.08,1.02,0.35L419.63,306.07z"/>
                                    <path fill="#21A5A7" d="M419.61,311.48c-2.81-0.26-5.62-0.51-8.43-0.78c-0.34-0.03-0.66-0.02-0.95,0.18
                                        c-0.29-0.83-0.04-1.49,0.64-2.01c0.93-0.26,1.84,0.06,2.76,0.1c1.75,0.08,3.49,0.38,5.24,0.42c0.27,0.01,0.52,0.09,0.73,0.28
                                        C419.61,310.28,419.61,310.88,419.61,311.48z"/>
                                    <path fill="#23A8A9" d="M419.61,309.68c-2.97,0.06-5.9-0.55-8.86-0.62c-0.2-0.56-0.17-1.06,0.39-1.41
                                        c2.82,0.27,5.65,0.55,8.47,0.82C419.61,308.88,419.61,309.28,419.61,309.68z"/>
                                    <path fill="#21AFAF" d="M419.61,302.06c0,0.73,0,1.47,0,2.2c-0.24,0.22-0.53,0.31-0.83,0.28c-2.02-0.2-4.05-0.25-6.05-0.58
                                        c-0.16-0.03-0.32-0.09-0.46-0.18c-0.4-1-0.02-1.83,0.56-2.62c0.97-0.22,1.88,0.24,2.84,0.25c0.95,0,1.91,0.16,2.86,0.22
                                        C418.93,301.65,419.31,301.77,419.61,302.06z"/>
                                    <path fill="#1FACAD" d="M412.24,303.67c2.46,0.2,4.91,0.4,7.37,0.6c0,0.6,0,1.2,0,1.81c-2.62-0.21-5.24-0.41-7.86-0.62
                                        C411.53,304.75,411.67,304.15,412.24,303.67z"/>
                                    <path fill="#23B1B1" d="M419.61,302.06c-2.24-0.34-4.54-0.22-6.76-0.8c-0.33-0.65-0.13-1.16,0.39-1.6c1.64-0.13,3.26,0.2,4.89,0.3
                                        c0.49,0.03,0.98,0.07,1.47,0.1C419.61,300.73,419.61,301.39,419.61,302.06z"/>
                                    <path fill="#ECF2F4" d="M318.42,256.11c-0.01,0.1-0.02,0.19-0.03,0.29c-0.37-0.51-0.72-1.03-0.8-1.67
                                        C318.08,255.06,318.25,255.58,318.42,256.11z"/>
                                    <path fill="#CED8DA" d="M374.72,319.07c0.28,0.27,0.29,0.63,0.36,0.98c-0.13-0.05-0.25-0.1-0.38-0.15
                                        C374.69,319.62,374.53,319.34,374.72,319.07z"/>
                                    <path fill="#109C9F" d="M419.19,260.76c-0.26,0.31-0.16,0.68-0.15,1.03c0.15,0.35,0.05,0.72,0.08,1.08
                                        c-0.03,0.3-0.09,0.6-0.19,0.89c-5.6,8.86-11.11,17.77-16.68,26.64c-1.79,2.86-3.57,5.72-5.36,8.57c-0.26,0.41-0.44,0.93-1.08,0.88
                                        c0-1.54,0-3.07,0.01-4.61c1.1-1.3,1.87-2.81,2.78-4.24c2.87-4.52,5.68-9.08,8.52-13.62c3.91-6.26,7.81-12.53,11.72-18.79
                                        c0.1-0.16,0.27-0.28,0.4-0.42c0.01,0.41,0.02,0.82,0.03,1.24C419.32,259.86,419.43,260.31,419.19,260.76z"/>
                                    <path fill="#4EBCC0" d="M414,248.37c2.05-0.07,2.04-0.07,2.44,1.98c0.11,0.55,0.24,1.08,0.37,1.63c0.08,0.36,0.14,0.73,0.61,0.79
                                        c-0.09,0.54-0.42,0.98-0.65,1.45c-0.17,0.25-0.34,0.5-0.54,0.72c-0.01,0.08-0.02,0.16-0.02,0.24c-0.21,0.17-0.19,0.55-0.53,0.6
                                        c-0.78-0.53-0.55-1.42-0.72-2.15C414.55,251.89,414.14,250.15,414,248.37z"/>
                                    <path fill="#C0DCDD" d="M416.22,254.93c0.04-0.35,0.19-0.61,0.54-0.72C416.71,254.54,416.7,254.92,416.22,254.93z"/>
                                    <path fill="#F6FAFB" d="M415.67,255.78c0.22-0.16,0.21-0.53,0.53-0.6c0.01,0.33-0.13,0.59-0.38,0.79c-0.05,0.1-0.11,0.1-0.16,0
                                        C415.66,255.9,415.66,255.84,415.67,255.78z"/>
                                    <path fill="#FBFCFD" d="M415.66,255.96c0.05,0,0.11,0,0.16,0c-0.02,0.33-0.17,0.6-0.4,0.83c-0.01-0.09-0.02-0.19-0.04-0.28
                                        C415.48,256.33,415.57,256.15,415.66,255.96z"/>
                                    <path fill="#24727D" d="M399.99,336.56c-0.36-0.23-0.35-0.23-0.64,0.23c-0.97,1.55-1.95,3.09-2.91,4.64
                                        c-0.18,0.29-0.35,0.57-0.66,0.72c0-0.73-0.01-1.47-0.01-2.2c-0.06-0.08-0.08-0.18-0.05-0.27c1.88-2.63,3.46-5.44,5.2-8.15
                                        c0.36-0.56,0.7-1.14,1.11-1.66c0.18-0.23,0.43-0.66,0.71-0.06c-0.06,1.19-0.71,2.19-1.06,3.29c-0.29,0.92-0.68,1.8-1.06,2.69
                                        C400.5,336.09,400.46,336.52,399.99,336.56z"/>
                                    <path fill="#108288" d="M394.38,333.52c0-2.94,0-5.88,0-8.81c0.93-0.2,1.06,0.71,1.55,1.13c0.18,0.5,0.09,1.03,0.13,1.54
                                        c0.02,0.72-0.02,1.44,0,2.15c0.03,0.85-0.02,1.69-0.01,2.54c-0.02,0.76,0.1,1.53-0.13,2.28c-0.29,0.45-0.58,0.27-0.88,0.01
                                        C394.78,334.11,394.61,333.79,394.38,333.52z"/>
                                    <path fill="#1E888D" d="M394.38,333.52c0.72-0.02,0.69,1,1.39,1.01c0.04,0.04,0.08,0.09,0.13,0.13c0.32,0.82,0.09,1.69,0.18,2.53
                                        c-0.05,0.86,0.18,1.74-0.3,2.55c0,0.07-0.01,0.13-0.01,0.2c-0.87-0.4-1.39-1.07-1.39-2.05
                                        C394.36,336.44,394.37,334.98,394.38,333.52z"/>
                                    <path fill="#107F85" d="M395.77,325.71c-0.7,0-0.66-1.04-1.39-1c0-1.4,0-2.8,0-4.2c0.82,0.2,1.1,0.94,1.56,1.51
                                        c0.09,0.26,0.1,0.54,0.11,0.81c0.01,0.75,0.01,1.5-0.01,2.25C396.02,325.31,395.97,325.54,395.77,325.71z"/>
                                    <path fill="#0F7D83" d="M395.76,321.9c-0.63-0.3-0.86-1-1.39-1.4c0-0.13-0.01-0.27-0.01-0.4c0.01-1.07,0.01-2.14,0.02-3.21
                                        c0.94-0.05,1.11,0.8,1.56,1.32c0.14,0.49,0.09,0.99,0.1,1.5c0.03,0.4-0.02,0.8,0.01,1.2C396.04,321.27,396.06,321.63,395.76,321.9z
                                        "/>
                                    <path fill="#E4EAEC" d="M397.54,342.49c0.06,0.08,0.12,0.15,0.18,0.23c-0.1,0.3-0.24,0.56-0.55,0.68
                                        C397.1,343.03,397.31,342.76,397.54,342.49z"/>
                                    <path fill="#149A9E" d="M418.25,269.21c-0.09,0.33,0.01,0.71-0.22,1.01c-1.59,2.3-3,4.71-4.48,7.07
                                        c-5.21,8.31-10.4,16.64-15.6,24.96c-0.48,0.76-0.93,1.55-1.45,2.28c-0.24,0.34-0.5,0.71-0.9,0.15c-0.18-0.67-0.1-1.36-0.11-2.05
                                        c0.02-0.54-0.13-1.11,0.26-1.58c0.02-0.4,0.03-0.8,0.05-1.2c1.25-1.1,1.88-2.64,2.75-4c2.63-4.11,5.18-8.28,7.76-12.43
                                        c3.83-6.15,7.67-12.29,11.51-18.43c0.28-0.44,0.48-0.96,0.99-1.22c0.09,0.03,0.16,0.09,0.21,0.18c0.03,0.3-0.07,0.57-0.19,0.84
                                        c0.03,0.38-0.02,0.76-0.03,1.15c-0.14,0.32-0.11,0.67-0.16,1C418.62,267.71,418.56,268.48,418.25,269.21z"/>
                                    <path fill="#236871" d="M395.74,301.05c0,0.54,0,1.08,0,1.61c-0.86,0.22-1.02-0.52-1.38-1c0-0.6,0-1.21,0-1.81
                                        C395.14,299.89,395.14,300.82,395.74,301.05z"/>
                                    <path fill="#176972" d="M394.37,301.66c0.54,0.23,0.73,0.93,1.38,1c0.01,0.73,0.03,1.47,0.04,2.2c0.22,0.28,0.24,0.59,0.1,0.91
                                        c-1.03,0.35-1.14-0.56-1.51-1.11C394.37,303.67,394.37,302.67,394.37,301.66z"/>
                                    <path fill="#166D75" d="M394.37,304.67c0.57,0.27,0.69,1.06,1.37,1.2c0.53,0.77,0.32,1.6,0.2,2.42c-0.28,0.48-0.59,0.28-0.88,0.02
                                        c-0.28-0.24-0.45-0.57-0.69-0.84C394.38,306.54,394.38,305.6,394.37,304.67z"/>
                                    <path fill="#157178" d="M394.38,307.47c0.73-0.03,0.68,0.99,1.37,1c0.31,0.26,0.27,0.62,0.29,0.97c0,0.45,0.05,0.9-0.14,1.34
                                        c-0.87,0.57-1.07-0.35-1.53-0.7C394.38,309.21,394.38,308.34,394.38,307.47z"/>
                                    <path fill="#13737B" d="M394.38,310.08c0.61,0,0.76,0.8,1.37,0.8c0.51,0.7,0.31,1.47,0.19,2.22c-0.28,0.48-0.6,0.27-0.92,0.06
                                        c-0.32-0.21-0.47-0.55-0.65-0.87C394.38,311.55,394.38,310.81,394.38,310.08z"/>
                                    <path fill="#13767D" d="M394.38,312.29c0.53,0.24,0.72,0.93,1.37,1c0.5,0.7,0.31,1.46,0.18,2.21c-0.32,0.5-0.64,0.26-0.95-0.01
                                        c-0.3-0.27-0.4-0.66-0.6-0.99C394.38,313.76,394.38,313.02,394.38,312.29z"/>
                                    <path fill="#117980" d="M394.38,314.49c0.61,0.23,0.61,1.15,1.38,1.2c0.04,0.04,0.08,0.08,0.12,0.12c0.26,0.66,0.19,1.33,0.08,2.01
                                        c-0.04,0.11-0.11,0.2-0.2,0.27c-0.59-0.25-0.76-0.98-1.38-1.2C394.38,316.09,394.38,315.29,394.38,314.49z"/>
                                    <path fill="#C2E1E3" d="M419.19,260.76c0.02-0.45,0.04-0.91,0.06-1.36c0.33,0.47,0.12,1,0.16,1.51c0,0.02-0.04,0.03-0.06,0.05
                                        C419.29,260.89,419.24,260.83,419.19,260.76z"/>
                                    <path fill="#C2E3E5" d="M419.02,263.95c-0.07-0.06-0.14-0.12-0.21-0.18c0.07-0.27,0.14-0.53,0.2-0.8c0.06-0.09,0.12-0.09,0.19-0.01
                                        c0.01,0.2,0.02,0.41,0.03,0.61C419.16,263.7,419.09,263.83,419.02,263.95z"/>
                                    <path fill="#E0EEEF" d="M419.2,262.97c-0.06,0.01-0.13,0.01-0.19,0.01c0.01-0.4,0.02-0.8,0.02-1.19
                                        C419.37,262.14,419.17,262.57,419.2,262.97z"/>
                                    <path fill="#E2EFF0" d="M418.25,269.21c0.09-0.81,0.08-1.64,0.37-2.42c0.14,0.09,0.06,0.27,0.16,0.38
                                        c-0.05,0.74-0.09,1.49-0.14,2.23c-0.06,0.21-0.01,0.46-0.21,0.63C418.36,269.75,418.51,269.43,418.25,269.21z"/>
                                    <path fill="#C9E2E3" d="M418.64,266c-0.04-0.42-0.04-0.83,0.18-1.21c0.36,0.47,0.24,0.94,0.02,1.42
                                        C418.72,266.19,418.71,266.07,418.64,266z"/>
                                    <path fill="#FDFEFE" d="M418.64,266c0.07,0.07,0.14,0.14,0.21,0.21c-0.02,0.32-0.04,0.64-0.07,0.96c-0.05-0.13-0.11-0.25-0.16-0.38
                                        C418.39,266.51,418.61,266.26,418.64,266z"/>
                                    <path fill="#217580" d="M404.82,323.57c-0.84,2.03-1.24,4.23-2.2,6.21c-0.83,0.35-1.05,1.21-1.47,1.87
                                        c-1.55,2.39-3.04,4.82-4.54,7.25c-0.22,0.35-0.47,0.64-0.82,0.85c0-0.87,0-1.74,0-2.61c1.87-3.33,4.01-6.5,6.01-9.76
                                        c0.69-1.13,1.39-2.27,2.12-3.38c0.18-0.27,0.34-0.59,0.68-0.7C404.78,323.25,404.9,323.33,404.82,323.57z"/>
                                    <path fill="#17868D" d="M411.87,300.27c-0.49,1.52-0.62,3.14-1.26,4.62c-0.39,0-0.46,0.33-0.62,0.57
                                        c-4.36,6.97-8.72,13.95-13.08,20.92c-0.27,0.43-0.45,1-1.14,0.94c0-0.53,0-1.07,0-1.6c0-0.2,0-0.4,0-0.6
                                        c1.04-1.97,2.31-3.81,3.48-5.7c1.84-2.97,3.7-5.93,5.56-8.89c2.02-3.21,3.99-6.45,6.06-9.64
                                        C411.08,300.53,411.31,300.1,411.87,300.27z"/>
                                    <path fill="#19838B" d="M395.77,327.32c0.92-0.54,1.24-1.55,1.76-2.37c2.92-4.6,5.78-9.23,8.65-13.85
                                        c1.19-1.92,2.37-3.84,3.59-5.74c0.16-0.25,0.19-0.98,0.83-0.47c-0.32,1.13-0.47,2.31-0.96,3.4c-1.47,2.25-2.86,4.56-4.29,6.84
                                        c-2.8,4.46-5.58,8.92-8.37,13.39c-0.28,0.45-0.5,1.05-1.22,1.01C395.77,328.79,395.77,328.05,395.77,327.32z"/>
                                    <path fill="#1A8088" d="M395.77,329.52c0.39-0.22,0.64-0.55,0.88-0.93c3.51-5.63,7-11.26,10.55-16.86
                                        c0.75-1.19,1.27-2.56,2.45-3.45c-0.54,1.59-0.74,3.27-1.44,4.81c-0.75,0.73-1.13,1.7-1.67,2.57c-3.17,5.06-6.35,10.12-9.51,15.19
                                        c-0.31,0.5-0.46,1.21-1.25,1.27C395.77,331.26,395.77,330.39,395.77,329.52z"/>
                                    <path fill="#1E7C86" d="M395.77,332.13c1.3-1.43,2.14-3.18,3.17-4.79c2.66-4.16,5.25-8.37,7.86-12.56c0.3-0.48,0.57-0.97,0.89-1.44
                                        c0.1-0.15,0.19-0.49,0.51-0.24c-0.45,1.69-0.91,3.38-1.56,5.01c-2.47,3.72-4.75,7.55-7.14,11.31c-0.93,1.46-1.81,2.95-2.77,4.4
                                        c-0.23,0.34-0.4,0.8-0.96,0.71c0,0,0,0,0,0C395.77,333.73,395.77,332.93,395.77,332.13z"/>
                                    <path fill="#1F7983" d="M395.77,334.53c1.11-0.95,1.66-2.3,2.42-3.49c2.55-3.99,5.04-8.03,7.54-12.05c0.23-0.37,0.47-0.72,0.9-0.89
                                        c-0.51,1.85-1.11,3.67-1.82,5.46c-0.5-0.34-0.46,0.23-0.56,0.39c-1.94,3.05-3.83,6.13-5.79,9.16c-0.87,1.36-1.53,2.86-2.7,4.02
                                        C395.77,336.27,395.77,335.4,395.77,334.53z"/>
                                    <path fill="#178990" d="M411.87,300.27c-0.89,0.31-1.12,1.22-1.56,1.88c-1.56,2.38-2.98,4.85-4.49,7.26
                                        c-1.83,2.92-3.7,5.81-5.53,8.72c-1.4,2.21-2.77,4.44-4.16,6.65c-0.08,0.13-0.24,0.22-0.36,0.33c0-0.8,0-1.6,0-2.41
                                        c3.22-5.11,6.4-10.24,9.6-15.35c2.14-3.42,4.26-6.85,6.43-10.26c0.22-0.35,0.35-0.95,1.02-0.64
                                        C412.52,297.73,412.35,299.04,411.87,300.27z"/>
                                    <path fill="#178C92" d="M412.83,296.45c-0.98,0.31-1.15,1.32-1.6,2.03c-2.96,4.64-5.85,9.34-8.77,14.01
                                        c-1.83,2.93-3.65,5.86-5.48,8.78c-0.33,0.53-0.61,1.11-1.21,1.43c0-0.27,0-0.53-0.01-0.8c0-0.33,0-0.67,0.01-1
                                        c2.01-3.46,4.2-6.81,6.32-10.21c3.23-5.18,6.47-10.35,9.7-15.53c0.3-0.48,0.59-0.97,0.95-1.41c0.22-0.27,0.42-0.63,0.88-0.51
                                        C413.35,294.31,413.27,295.43,412.83,296.45z"/>
                                    <path fill="#139196" d="M395.76,318.09c0.01-0.07,0.01-0.13,0.02-0.2c2.55-3.79,4.88-7.72,7.31-11.59
                                        c3.48-5.53,6.93-11.08,10.41-16.62c0.24-0.39,0.36-1.09,1.12-0.85c-0.08,0.91-0.29,1.78-0.59,2.64c-1.13,1.72-2.19,3.49-3.28,5.24
                                        c-4.19,6.7-8.39,13.41-12.58,20.12c-0.49,0.79-0.98,1.59-1.49,2.37c-0.21,0.31-0.37,0.76-0.91,0.5
                                        C395.77,319.16,395.76,318.63,395.76,318.09z"/>
                                    <path fill="#158E94" d="M395.77,319.7c0.91-0.34,1.11-1.27,1.55-1.96c2.95-4.65,5.84-9.34,8.76-14.02
                                        c2.48-3.97,4.96-7.94,7.45-11.9c0.11-0.17,0.08-0.6,0.5-0.34c-0.26,0.56-0.06,1.23-0.41,1.77c-1.24,0.93-1.8,2.37-2.59,3.62
                                        c-2.56,4-5.05,8.05-7.56,12.08c-2.23,3.58-4.45,7.17-6.69,10.74c-0.28,0.44-0.48,0.96-1,1.22
                                        C395.77,320.5,395.77,320.1,395.77,319.7z"/>
                                    <path fill="#0D969A" d="M395.76,315.7c0-0.8,0-1.61,0-2.41c0-0.8,0-1.6,0-2.41c0.01-0.47,0.02-0.94,0.04-1.4
                                        c2.19-3.7,4.53-7.31,6.8-10.96c4.18-6.71,8.38-13.4,12.56-20.11c0.37-0.59,0.73-1.2,1.17-1.74c0.19-0.24,0.45-0.62,0.71-0.03
                                        c-0.37,2.9-0.93,5.76-1.62,8.6c-1.68,2.33-3.1,4.82-4.63,7.24c-4.72,7.51-9.4,15.05-14.11,22.56c-0.2,0.32-0.36,0.75-0.88,0.65
                                        L395.76,315.7z"/>
                                    <path fill="#12989C" d="M417.02,276.62c-0.58-0.39-0.59,0.27-0.72,0.47c-1.52,2.35-3,4.71-4.48,7.08
                                        c-4.22,6.77-8.44,13.54-12.67,20.32c-0.99,1.58-1.98,3.15-2.97,4.73c-0.1,0.16-0.23,0.23-0.4,0.25c-0.01-0.33-0.02-0.67-0.04-1
                                        c0-0.87,0-1.74,0-2.61c0.01-0.33,0.03-0.67,0.04-1c0.71-0.39,0.96-1.15,1.35-1.78c3.29-5.22,6.55-10.47,9.81-15.71
                                        c3.48-5.58,6.96-11.15,10.44-16.73c0.14-0.22,0.26-0.49,0.46-0.64c0.17-0.13,0.13,0.12,0.18,0.21
                                        C417.71,272.35,417.59,274.52,417.02,276.62z"/>
                                    <path fill="#0F9398" d="M395.78,315.68c1.12-1.07,1.74-2.49,2.55-3.77c2.93-4.59,5.77-9.24,8.66-13.86
                                        c2.48-3.97,4.96-7.94,7.47-11.9c0.23-0.36,0.35-0.91,0.94-0.93c-0.25,1.21-0.34,2.45-0.78,3.61c-0.7,0.2-0.87,0.88-1.19,1.39
                                        c-3.23,5.12-6.42,10.26-9.62,15.4c-2.36,3.78-4.71,7.57-7.09,11.34c-0.23,0.36-0.35,0.91-0.94,0.93
                                        C395.78,317.16,395.78,316.42,395.78,315.68z"/>
                                </g>
                                <g id="BlenderLogo">
                                    <path fill="#E87D0F" d="M379.27,45.04c-1.73-1.41-3.33-2.72-4.93-4.02c-3.01-2.46-6.03-4.91-9.04-7.37
                                        c-0.95-0.78-1.72-1.69-1.78-2.99c-0.08-1.73,0.85-2.93,2.21-3.82c2.48-1.63,6.18-1.62,8.83,0.44
                                        c11.13,8.62,22.32,17.14,33.46,25.74c5.27,4.07,9.32,9.12,11.68,15.41c1.85,4.92,2.52,10,1.83,15.21
                                        c-1.33,10.09-6.47,17.88-14.64,23.75c-5.04,3.63-10.7,5.86-16.82,6.76c-10.9,1.6-21.02-0.51-30.05-6.93
                                        c-6.62-4.71-11.19-10.96-13.41-18.84c-0.73-2.59-1.03-5.23-0.8-7.91c0.03-0.3,0.03-0.6,0.04-0.91c-0.22,0-0.32,0.14-0.43,0.23
                                        c-6.88,5.63-13.76,11.26-20.65,16.9c-1.8,1.47-3.82,2.4-6.18,2.44c-4.74,0.07-7.55-3.86-5.98-8.34c0.66-1.88,1.86-3.36,3.43-4.57
                                        c12.97-9.96,25.94-19.92,38.91-29.87c0.12-0.09,0.24-0.19,0.39-0.31c-0.22-0.13-0.44-0.07-0.63-0.07c-7.06,0-14.12-0.01-21.18,0
                                        c-1.28,0-2.5-0.21-3.62-0.87c-2.1-1.23-2.8-3.69-1.63-5.82c1.37-2.5,3.59-3.74,6.35-4.12c0.92-0.13,1.85-0.1,2.78-0.1
                                        c13.67,0,27.35,0,41.02,0C378.67,45.04,378.87,45.04,379.27,45.04z"/>
                                    <path fill="#FFFFFF" d="M383.46,55.95c5.85,0.08,11.02,1.69,15.49,5.25c4.24,3.38,7,7.71,7.7,13.16
                                        c0.98,7.65-1.88,13.78-7.75,18.56c-3.9,3.18-8.45,4.82-13.46,5.17c-6.47,0.45-12.33-1.2-17.42-5.28
                                        c-3.59-2.88-6.09-6.52-7.18-11.01c-1.26-5.17-0.55-10.11,2.2-14.67c3.6-5.96,9.02-9.33,15.75-10.71
                                        C380.38,56.09,382,55.98,383.46,55.95z"/>
                                    <path fill="#275888" d="M384.05,89.84c-4.55-0.17-8.35-1.68-11.39-4.95c-4.32-4.63-4.5-11.89-0.32-16.65
                                        c3.75-4.27,8.55-5.86,14.12-5.13c3.78,0.49,6.96,2.2,9.47,5.1c4.17,4.81,4.03,12.05-0.32,16.7
                                        C392.44,88.3,388.48,89.79,384.05,89.84z"/>
                                </g>
                                <g>
                                    <path d="M240.68,42.81c-7.88-1.91-15.57-3.67-23.19-5.7c-1.44-0.38-2.61-1.8-3.9-2.74c1.61-0.31,3.34-1.18,4.8-0.85
                                        c9.73,2.25,19.39,4.8,29.09,7.16c4.31,1.05,4.6,2.87,1.87,6.17c-5.29,6.41-10.28,13.07-15.57,19.49c-0.85,1.03-2.62,1.32-3.97,1.94
                                        c0.24-1.54,0-3.43,0.81-4.56c3.68-5.09,7.66-9.97,11.67-15.11c-0.77-0.28-1.24-0.65-1.62-0.57c-37.81,7.4-73.6,19.69-104.36,43.83
                                        c-4.95,3.89-9.23,8.62-14.02,12.74c-1.1,0.94-3,0.95-4.53,1.39c0.49-1.42,0.6-3.19,1.53-4.2C133.14,87,149.72,76,167.87,67.3
                                        c21.87-10.49,44.77-17.9,68.59-22.49c1.14-0.22,2.27-0.48,3.38-0.8C240.06,43.94,240.19,43.53,240.68,42.81z"/>
                                </g>
                                <g>
                                    <path d="M234.88,312.74c-7.88,1.91-15.57,3.67-23.19,5.7c-1.44,0.38-2.61,1.8-3.9,2.74c1.61,0.31,3.34,1.18,4.8,0.85
                                        c9.73-2.25,19.39-4.8,29.09-7.16c4.31-1.05,4.6-2.87,1.87-6.17c-5.29-6.41-10.28-13.07-15.57-19.49c-0.85-1.03-2.62-1.32-3.97-1.94
                                        c0.24,1.54,0,3.43,0.81,4.56c3.68,5.09,7.66,9.97,11.67,15.11c-0.77,0.28-1.24,0.65-1.62,0.57c-37.81-7.4-73.6-19.69-104.36-43.83
                                        c-4.95-3.89-9.23-8.62-14.02-12.74c-1.1-0.94-3-0.95-4.53-1.39c0.49,1.42,0.6,3.19,1.53,4.2c13.82,14.8,30.41,25.8,48.56,34.51
                                        c21.87,10.49,44.77,17.9,68.59,22.49c1.14,0.22,2.27,0.48,3.38,0.8C234.26,311.61,234.38,312.02,234.88,312.74z"/>
                                </g>
                                <g>
                                    <path d="M180.93,226.84c7.88-1.91,15.57-3.67,23.19-5.7c1.44-0.38,2.61-1.8,3.9-2.74c-1.61-0.31-3.34-1.18-4.8-0.85
                                        c-9.73,2.25-19.39,4.8-29.09,7.16c-4.31,1.05-4.6,2.87-1.87,6.17c5.29,6.41,10.28,13.07,15.57,19.49c0.85,1.03,2.62,1.32,3.97,1.94
                                        c-0.24-1.54,0-3.43-0.81-4.56c-3.68-5.09-7.66-9.97-11.67-15.11c0.77-0.28,1.24-0.65,1.62-0.57c37.81,7.4,73.6,19.69,104.36,43.83
                                        c4.95,3.89,9.23,8.62,14.02,12.74c1.1,0.94,3,0.95,4.53,1.39c-0.49-1.42-0.6-3.19-1.53-4.2c-13.82-14.8-30.41-25.8-48.56-34.51
                                        c-21.87-10.49-44.77-17.9-68.59-22.49c-1.14-0.22-2.27-0.48-3.38-0.8C181.54,227.98,181.42,227.57,180.93,226.84z"/>
                                </g>
                                <g>
                                    <path d="M180.93,132.92c7.88,1.91,15.57,3.67,23.19,5.7c1.44,0.38,2.61,1.8,3.9,2.74c-1.61,0.31-3.34,1.18-4.8,0.85
                                        c-9.73-2.25-19.39-4.8-29.09-7.16c-4.31-1.05-4.6-2.87-1.87-6.17c5.29-6.41,10.28-13.07,15.57-19.49c0.85-1.03,2.62-1.32,3.97-1.94
                                        c-0.24,1.54,0,3.43-0.81,4.56c-3.68,5.09-7.66,9.97-11.67,15.11c0.77,0.28,1.24,0.65,1.62,0.57c37.81-7.4,73.6-19.69,104.36-43.83
                                        c4.95-3.89,9.23-8.62,14.02-12.74c1.1-0.94,3-0.95,4.53-1.39c-0.49,1.42-0.6,3.19-1.53,4.2c-13.82,14.8-30.41,25.8-48.56,34.51
                                        c-21.87,10.49-44.77,17.9-68.59,22.49c-1.14,0.22-2.27,0.48-3.38,0.8C181.54,131.79,181.42,132.2,180.93,132.92z"/>
                                </g>
                                </svg>