<?xml version="1.0" encoding="UTF-8" standalone="no"?>
<!DOCTYPE svg PUBLIC "-//W3C//DTD SVG 1.1//EN" "http://www.w3.org/Graphics/SVG/1.1/DTD/svg11.dtd">
<svg width="100%" height="100%" viewBox="0 0 1024 1024" version="1.1" xmlns="http://www.w3.org/2000/svg" xmlns:xlink="http://www.w3.org/1999/xlink" xml:space="preserve" xmlns:serif="http://www.serif.com/" style="fill-rule:evenodd;clip-rule:evenodd;stroke-linejoin:round;stroke-miterlimit:2;">
    <rect id="Artboard1" x="0" y="0" width="1024" height="1024" style="fill:none;"/>
    <clipPath id="_clip1">
        <rect id="Artboard11" serif:id="Artboard1" x="0" y="0" width="1024" height="1024"/>
    </clipPath>
    <g clip-path="url(#_clip1)">
        <g transform="matrix(16,0,0,16,-17184,0.0003)">
            <path d="M1138,15.99C1138,11.749 1136.32,7.682 1133.32,4.683C1130.32,1.685 1126.25,-0 1122.01,0L1089.99,0C1085.75,-0 1081.68,1.685 1078.68,4.683C1075.68,7.682 1074,11.749 1074,15.99L1074,48.01C1074,52.251 1075.68,56.318 1078.68,59.317C1081.68,62.315 1085.75,64 1089.99,64L1122.01,64C1126.25,64 1130.32,62.315 1133.32,59.317C1136.32,56.318 1138,52.251 1138,48.01L1138,15.99Z" style="fill:white;"/>
        </g>
        <path d="M768.166,1024L255.834,1024C187.983,1024 122.91,997.046 74.932,949.068C26.954,901.09 -0,836.017 0,768.166L0,255.834C-0,187.983 26.954,122.91 74.932,74.932L391.32,391.32C360.435,422.204 341.334,464.872 341.334,512C341.334,606.257 417.743,682.667 512,682.667C559.128,682.667 601.795,663.565 632.68,632.68L949.068,949.068C901.09,997.046 836.017,1024 768.166,1024ZM391.32,391.32C422.205,360.436 464.872,341.333 512,341.333C606.257,341.333 682.667,417.743 682.667,512C682.667,559.128 663.564,601.795 632.68,632.68L391.32,391.32Z"/>
    </g>
</svg>
